<?xml version="1.0" encoding="UTF-8"?>
<svg id="Calque_2" data-name="Calque 2" xmlns="http://www.w3.org/2000/svg" viewBox="0 0 107.64 107.89">
  <defs>
    <style>
      .cls-1 {
        fill: #439eca;
      }

      .cls-1, .cls-2, .cls-3, .cls-4, .cls-5, .cls-6, .cls-7, .cls-8 {
        stroke-width: 0px;
      }

      .cls-2 {
        fill: #5cbcac;
      }

      .cls-3 {
        fill: #48b4cc;
      }

      .cls-4 {
        fill: #40a8ca;
      }

      .cls-5 {
        fill: #48bbc7;
      }

      .cls-6 {
        fill: #64bda0;
      }

      .cls-7 {
        fill: #4abbba;
      }

      .cls-8 {
        fill: #65b78d;
      }
    </style>
  </defs>
  <g id="Calque_1-2" data-name="Calque 1">
    <g>
      <path class="cls-8" d="M8.69,43.54c.45-2.29,1.16-4.56,2.09-6.75,6.44-15.17,17.73-24.55,33.77-28.25.36-.08.73-.16,1.09-.2.91-.12,1.6.2,1.78,1.14.18.92-.27,1.54-1.18,1.77-1.64.42-3.32.71-4.92,1.23-15.22,4.92-24.97,15.16-29.47,30.46-.13.46-.22.94-.41,1.36-.34.75-1.01.91-1.74.74-.71-.17-.99-.73-1.02-1.5Z"/>
      <path class="cls-1" d="M106.14,66.68c-2.76,11.37-8.67,20.8-17.52,28.42-4.45,3.83-9.47,6.73-14.89,8.97-1.94.8-3.01.72-3.3-.37-.48-1.77,1.03-1.93,2.1-2.38,14.43-6.04,24.26-16.43,29.5-31.15.41-1.14.75-2.31,1.12-3.47.99-.47,1.99-.29,2.99-.01Z"/>
      <path class="cls-4" d="M57.3,89.67c9.31-1.14,17.17-5.08,23.42-12.13,4.09-4.62,6.67-10.01,8.16-15.96.83-.7,1.74-1.3,1.58-2.65-.06-.55.65-.96,1.09-.96.72,0,.34.72.42,1.12.06.31.02.63.02.95-.03.31-.06.62-.09.94-.06.15-.13.31-.19.46-.54,4.62-2.34,8.77-4.76,12.67-6.5,10.44-15.9,16.47-28.02,18.33-.41.06-.85.02-1.27.02-.74.07-1.52-.23-2.22.22-.43,0-.86,0-1.29,0,.1-.94.21-1.87.31-2.81.08-.04.16-.04.24,0,.87-.05,1.77.27,2.6-.22Z"/>
      <path class="cls-6" d="M54.45,25.61c-6.98.16-13.31,2.13-18.73,6.69-4.11,3.45-7.05,7.69-8.71,12.8-.18.55-.37,1.1-.58,1.65-.31.82-.96,1.15-1.77.96-.87-.2-1.11-.91-1.03-1.73.04-.36.14-.73.26-1.07,3.99-11.84,12.08-19.14,24.31-21.62,2.52-.51,5.2-.85,7.84-.4,0,.38,0,.74-.48.88-.94.26-1.17.97-1.11,1.85Z"/>
      <path class="cls-8" d="M.03,53.33c.11-14.03,5.13-26.08,14.59-36.35.14-.16.3-.3.45-.45.73-.76,1.57-.99,2.35-.18.71.74.49,1.54-.19,2.25-1.93,2.04-3.69,4.22-5.33,6.5-2.07,2.89-3.89,5.98-5.18,9.23-2.17,5.51-3.56,11.28-3.77,17.26-.01.37-.07.74-.11,1.1-1.06-.32-1.81.73-2.81.64Z"/>
      <path class="cls-5" d="M59.4,47.22c1.9,2.92,1.33,6.54-1.48,8.75-.74.58-.95,1.06-.74,1.97.34,1.54.5,3.12.76,4.68.14.86-.08,1.27-1.05,1.24-2.06-.05-4.12-.06-6.18,0-1.01.03-1.14-.45-1.01-1.26.23-1.4.33-2.84.68-4.21.3-1.17.19-2.01-.93-2.65-.38-.22-.61-.71-.9-1.07,1.35.41,2.17-.09,3.25-1.08,1.91-1.75,3.43-4.03,5.99-5,.72-.27,1.12-.86,1.62-1.37Z"/>
      <path class="cls-4" d="M56.98,97.28c9.53-.98,18.05-4.38,25.35-10.65.8-.69,1.66-.88,2.36-.01.7.87.28,1.68-.49,2.34-5.82,4.97-12.44,8.39-19.9,10.12-3.62.84-7.3,1.25-11.01,1.27-.57,0-1.17.1-1.7-.23-.01-.42.14-.94-.06-1.23-.93-1.43,0-1.31.98-1.35,1.49-.06,3.01.29,4.47-.25Z"/>
      <path class="cls-2" d="M30.06,54.39c-.03-10.39,6.54-19.61,15.9-22.82.3-.1.6-.2.91-.29.99-.32,1.71.07,2.03.98.32.92-.24,1.56-1.05,1.86-1.39.51-2.77,1.03-4.07,1.76-7.59,4.27-11.68,12.64-10.4,21.3.15,1.01.12,1.98-1.17,2.2-1.27.21-1.7-.64-1.83-1.68-.16-1.26-.24-2.53-.31-3.3Z"/>
      <path class="cls-3" d="M58.7,84.85c-.96,0-1.63-.33-1.71-1.32-.08-1.06.59-1.5,1.52-1.68,3.23-.64,6.33-1.64,9.22-3.29,5.85-3.33,9.9-8.17,12.44-14.35.08-.2.14-.4.22-.6.38-.94.99-1.6,2.05-1.18,1.05.41,1.11,1.32.77,2.27-.91,2.5-2.12,4.86-3.65,7.03-4.93,6.98-11.61,11.29-19.97,13-.31.06-.63.08-.89.11Z"/>
      <path class="cls-8" d="M54.45,3.02c-6.84.05-13.47,1.23-19.82,3.83-2.31.94-4.54,2.04-6.69,3.28-.92.53-1.83.82-2.45-.31-.61-1.1.06-1.75.98-2.29C34.01,3.14,42.13.65,50.85.21c1.62-.08,3.25-.44,4.88.02-.15,1.06-1.84,1.4-1.28,2.79Z"/>
      <path class="cls-4" d="M99.96,56.27c-.09,7.58-2.41,14.52-6.09,21.06-.34.6-.72,1.17-1.07,1.76-.55.94-1.26,1.75-2.4,1.01-1.1-.71-.75-1.67-.16-2.62,2-3.19,3.63-6.55,4.81-10.13,1.13-3.43,1.67-6.97,2.1-10.53.46-.29-.03-1.53,1.08-1.13.99.36,1.06-.17,1.08-.91,0-.42-.17-.92.65-1.54v3.03Z"/>
      <path class="cls-7" d="M59.4,47.22c-.5.51-.9,1.1-1.62,1.37-2.56.97-4.08,3.25-5.99,5-1.07.98-1.9,1.49-3.25,1.08-2.08-2.61-1.85-6.2.55-8.63,2.47-2.5,5.97-2.68,8.85-.43.57.45,1.18.88,1.45,1.61Z"/>
      <path class="cls-6" d="M54.78,18.08c-7.81.08-15.05,2.02-21.5,6.56-.09.06-.18.11-.27.17-.89.64-1.89,1.05-2.63-.04-.76-1.12.11-1.86.97-2.47,2.13-1.5,4.37-2.81,6.75-3.84,4.81-2.08,9.81-3.28,15.08-3.22-.16,1.33,1.58,1.6,1.6,2.83Z"/>
      <path class="cls-6" d="M15.08,53.33c.1-8.71,2.92-16.47,8.22-23.35.62-.81,1.45-1.25,2.32-.6.95.72.66,1.64,0,2.5-3.48,4.58-5.83,9.67-6.96,15.32-.18.88-.05,1.81-.5,2.64-1.24-.51-2.12-.49-2.03,1.25.06,1.23,1.26.79,1.79,1.32,0,.2,0,.4,0,.61-.96,0-1.93-.05-2.85.32Z"/>
      <path class="cls-2" d="M77.9,17.77c-4.28-2.57-8.72-4.75-13.63-5.86-1.7-.38-3.39-.83-5.15-.91-.26-.01-.53-.07-.78-.14-.91-.25-1.56-.76-1.36-1.81.18-.96.9-1.26,1.79-1.17,3.38.37,6.67,1.13,9.89,2.19,4.14,1.37,7.97,3.33,11.47,5.92-.83.48-1.71.91-2.24,1.77Z"/>
      <path class="cls-7" d="M71.88,43.64c-2.82-4.25-6.38-7.59-11.32-9.23-1.15-.38-2.34-.61-3.52-.88-1.01-.23-1.9-.59-1.67-1.85.23-1.24,1.2-1.37,2.21-1.16,3.38.69,6.52,1.8,9.42,3.85,2.81,1.99,5.26,4.17,6.95,7.17-1.23.16-2.07.71-2.07,2.09Z"/>
      <path class="cls-5" d="M19.15,80.07c3.4,4.16,7.19,7.88,11.81,10.68,1.49.9,3.02,1.73,4.53,2.6-1.14.3-2.22.71-2.99,1.67-4.99-2.42-9.26-5.79-12.98-9.87-.91-1.01-1.93-1.95-2.54-3.21,1.5.27,1.47-1.22,2.17-1.87Z"/>
      <path class="cls-5" d="M50,77.24c-7.11-.97-12.38-4.76-16.26-10.65-.52-.8-.51-1.68.37-2.22.85-.53,1.61-.23,2.16.61,3.3,5.01,7.91,8.09,13.73,9.4.31.95.61,1.91,0,2.86Z"/>
      <path class="cls-5" d="M78.83,35.47c2.4,2.64,3.76,5.84,4.84,9.17.92,2.83,1.31,5.77,1.45,8.74.05,1.07-.29,1.97-1.46,2.08-.91.09-1.51-.54-1.53-1.47-.12-6.34-2.18-12.02-5.79-17.18.88.27,1.63.34,1.74-.92.03-.36.45-.36.75-.43Z"/>
      <path class="cls-7" d="M71.65,19.58c2.51,1.15,4.63,2.83,6.78,4.55,2.34,1.86,4.36,3.97,6.23,6.26,1.18,1.44,1.32,2.58.39,3.15-1.48.91-2.09-.37-2.77-1.25-3.58-4.65-8.02-8.22-13.33-10.72-.19-.09-.34-.24-.51-.36.06-.36-.13-.95.57-.78,1.07.26,1.81-.38,2.63-.85Z"/>
      <path class="cls-3" d="M32.5,95.03c.77-.96,1.85-1.37,2.99-1.67,3.6,1.38,7.23,2.65,11.05,3.35,3.47.64,6.95.5,10.44.58-1.46.54-2.98.19-4.47.25-.99.04-1.92-.08-.98,1.35.19.3.05.82.06,1.23-6.76-.19-13.15-1.77-19.08-5.09Z"/>
      <path class="cls-3" d="M50,77.24c.62-.95.32-1.9,0-2.86,5.02.8,9.76.03,14.19-2.51.32-.18.66-.34.96-.55.89-.61,1.83-.83,2.47.22.63,1.03,0,1.79-.89,2.36-3.02,1.94-6.31,3.14-9.87,3.61-2.31.3-4.6.39-6.87-.27Z"/>
      <path class="cls-3" d="M91.99,60.05c0-.32.03-.64-.02-.95-.07-.41.3-1.12-.42-1.12-.45,0-1.15.41-1.09.96.16,1.35-.75,1.96-1.58,2.65,1.13-6.12.99-12.18-.84-18.17-.3-.98,0-1.71.95-2.03,1.01-.34,1.69.28,1.94,1.15.49,1.73.94,3.48,1.2,5.25.59,4.09.87,8.19-.14,12.26Z"/>
      <path class="cls-6" d="M54.45,3.02c-.56-1.38,1.13-1.73,1.28-2.79,5.35-.05,10.48,1.12,15.54,2.72.99.31,1.59.97,1.26,2.02-.35,1.11-1.3,1.16-2.22.85-5.15-1.75-10.45-2.56-15.86-2.8Z"/>
      <path class="cls-5" d="M26.14,100.13c-5.83-3.31-10.7-7.69-14.72-13.04.35.05.77,0,1.02.18,1.06.77,1.31.28,1.34-.75,0-.24.18-.47.27-.71,3.9,4.55,8.32,8.5,13.36,11.75-.64.19-1.37.16-1.89.69-.92.96.86.99.6,1.73-.02.04,0,.1,0,.16Z"/>
      <path class="cls-3" d="M104.68,50.17c-.3-.35-.27-.74-.11-1.13.1.07.21.13.31.2.09-.27-.14-.31-.3-.39-.81-5.2-2.05-10.28-4.03-15.17.86-.23,1.73-.45,2.59-.68,1.37,1.57,1.66,3.6,2.26,5.49,1.14,3.58,1.82,7.26,2.05,11.01-.23-.38-.55-.5-1.01-.56-.34-.04-.71-.65-1-.04-.22.46.24.57.62.65.71.14.34.61.25.97-.06.28.06.71-.37.76-.47.05-.54-.4-.66-.73-.11-.3-.35-.35-.62-.37Z"/>
      <path class="cls-3" d="M26.14,100.13c0-.05-.03-.11,0-.16.27-.74-1.52-.77-.6-1.73.51-.53,1.24-.5,1.89-.69,5.01,2.88,10.35,4.94,15.95,6.34-.89-.24-1.48.9-1.85.83-1.54-.28-.94.77-1.06,1.38-5.13-1.14-9.9-3.16-14.32-5.98Z"/>
      <path class="cls-2" d="M71.65,19.58c-.81.47-1.56,1.11-2.63.85-.71-.17-.51.42-.57.78-4.39-1.77-8.95-2.83-13.68-3.12-.01-1.24-1.75-1.5-1.6-2.83,6.55-.23,12.7,1.22,18.47,4.33Z"/>
      <path class="cls-3" d="M54.46,89.89c-.1.94-.21,1.87-.31,2.81-5.68.16-11.1-.96-16.22-3.44-.12-.09-.24-.18-.37-.26,0,0-.01.04-.01.04-.08-.86.28-1.4,1.15-1.57.36-.07.75-.13.81-.61,4.79,1.98,9.8,2.85,14.95,3.05Z"/>
      <path class="cls-5" d="M95.17,40.62c-1.82-5.17-4.43-9.92-7.76-14.27.93-.13,1.33.86,2.09,1.05.58-.47-.21-1.6.92-1.74.09.11.18.22.27.33-.47.61.03.56.41.6,3.5,4.47,5.87,9.49,7.29,14.97-1.08-.29-2.32-.05-3.22-.94Z"/>
      <path class="cls-2" d="M10.17,69.27c-1.94-4.7-2.43-9.68-2.74-14.68-.07-1.14.32-2.12,1.58-2.1,1.17.02,1.52.99,1.5,2.04-.06,3.66.6,7.22,1.4,10.76.21.91.55,1.79.83,2.68-1.1-.05-1.3,1.69-2.57,1.3Z"/>
      <path class="cls-4" d="M104.68,50.17c.27.02.52.07.62.37.12.34.18.78.66.73.42-.04.3-.48.37-.76.08-.36.45-.83-.25-.97-.38-.08-.84-.19-.62-.65.29-.6.66,0,1,.04.46.05.78.17,1.01.56.02.23.03.45.05.68-.33.32-.33.63.02.93.24,4.17.15,8.32-.78,12.42,0,0-.13-.02-.13-.02-.05-.02-.1-.04-.15-.06.04.03.08.06.13.08,0,.11.02.23.03.34.01.5.03,1.01-.23,1.47-.15-.17-.18-.53-.54-.39-.07.03-.14.15-.15.24-.04.42.25.51.58.55-.05.31-.1.63-.15.94-1-.28-2-.45-2.99.01.73-3.36,1.22-6.76,1.59-10.18.46-1.15.42-2.31.04-3.46-.03-.96-.07-1.92-.1-2.87Z"/>
      <path class="cls-3" d="M74.55,55.56c-.03-.11-.02-.21.03-.31.9.03,1.74.08,1.92-1.2.07-.49.58-.92.9-1.37.08.35.24.72.22,1.06-.36,4.91-1.26,9.66-4.28,13.75-.65.88-1.33,1.46-2.36.75-.94-.65-.78-1.56-.21-2.37,2.06-2.92,3.15-6.2,3.75-9.68.22-.04.53-.04.48-.36-.02-.11-.28-.18-.43-.27Z"/>
      <path class="cls-7" d="M10.17,69.27c1.27.39,1.47-1.35,2.57-1.3,1.62,4.31,3.76,8.34,6.41,12.1-.7.65-.67,2.14-2.17,1.87-3.01-3.83-5.42-7.98-6.82-12.68Z"/>
      <path class="cls-3" d="M95.17,40.62c.9.9,2.14.66,3.22.94,1.45,4.6,1.84,9.34,1.78,14.13,0,.19-.14.38-.22.57,0-.91,0-1.82,0-3.03-.82.62-.64,1.12-.65,1.54-.02.74-.08,1.28-1.08.91-1.11-.41-.62.84-1.08,1.13.22-5.51-.47-10.9-1.98-16.2Z"/>
      <path class="cls-7" d="M90.42,25.66c-1.13.13-.34,1.27-.92,1.74-.77-.19-1.16-1.18-2.09-1.05-2.88-3.18-6-6.09-9.5-8.58.53-.87,1.41-1.29,2.24-1.77,4.07,2.54,7.48,5.78,10.28,9.67Z"/>
      <path class="cls-5" d="M43.33,83.27c-4.97-1.47-9.02-4.36-12.45-8.17.24-.88-.09-1.58-.8-2.25,1.04.21,1.74.07,1.8-1.06,2.66,3.09,5.81,5.57,9.37,7.54-.67.75-.29,1.13.49,1.36h0c.1.64.27,1.3.93,1.52.59.2.68.56.66,1.06Z"/>
      <path class="cls-4" d="M40.47,106.1c.12-.61-.48-1.66,1.06-1.38.37.07.95-1.07,1.85-.83,3.45.43,6.89,1.03,10.39,1.01.89,0,1.56.58,1.53,1.49-.04,1.11-.91,1.57-1.88,1.5-2.63-.18-5.28-.17-7.88-.68-1.69-.33-3.44-.41-5.06-1.11Z"/>
      <path class="cls-2" d="M3.86,64.15c.94,3.34,1.8,6.7,3.19,9.9.45,1.04.93,2.08,1.39,3.11-1.23-.11-1.54,1.12-2.35,1.63-2.42-4.04-3.87-8.44-4.77-13.04,1.09-.14,1.39-1.53,2.53-1.6Z"/>
      <path class="cls-7" d="M78.83,35.47c-.3.07-.72.07-.75.43-.1,1.26-.86,1.18-1.74.92-2.75-3.42-6.12-6.08-9.92-8.23.88-.55,1.78-1.07,2.02-2.2,4.17,2.21,7.83,5.02,10.38,9.08Z"/>
      <path class="cls-5" d="M39.51,86.84c-.06.48-.45.54-.81.61-.87.17-1.23.71-1.15,1.57-3.94-1.44-7.17-3.97-10.24-6.72-.72-.64-.87-1.55-.18-2.25.67-.68,1.59-.61,2.28.05,2.98,2.82,6.43,4.93,10.09,6.72Z"/>
      <path class="cls-2" d="M15.08,53.33c.92-.38,1.89-.32,2.85-.32.33,2.8.14,5.65.88,8.4.38,1.43.72,2.87,1.08,4.3-1-.12-1.9.18-2.74.7-1.58-4.22-2.25-8.58-2.08-13.08Z"/>
      <path class="cls-7" d="M17.16,66.41c.84-.52,1.73-.82,2.74-.7,1.39,3.25,2.88,6.44,4.98,9.31.6.83.76,1.7-.16,2.35-1.01.72-1.81.14-2.4-.71-2.18-3.18-4.14-6.48-5.16-10.25Z"/>
      <path class="cls-2" d="M68.45,26.39c-.25,1.13-1.15,1.65-2.02,2.2-3.81-1.7-7.81-2.68-11.97-2.98-.06-.88.17-1.58,1.11-1.85.48-.14.48-.5.48-.88,3.34.11,6.54.77,9.56,2.27.93.46,1.9.83,2.85,1.24Z"/>
      <path class="cls-5" d="M77.39,52.68c-.31.46-.83.88-.9,1.37-.17,1.28-1.02,1.22-1.92,1.2.11-4.11-.89-7.96-2.7-11.62,0-1.38.84-1.93,2.07-2.09,2.22,3.38,3.39,7.09,3.45,11.14Z"/>
      <path class="cls-5" d="M103.15,33c-.86.23-1.73.45-2.59.68-1.71-3.42-3.57-6.75-5.71-9.92.98-.21,1.51-1.32,2.61-1.29,2.53,2.97,4.14,6.47,5.78,9.95.07.15-.05.38-.08.58Z"/>
      <path class="cls-7" d="M97.45,22.47c-1.1-.03-1.63,1.08-2.61,1.29-2.34-3-5.06-5.67-7.69-8.4.41-1.01,1.45-1.22,2.24-1.75,3.09,2.59,5.83,5.5,8.07,8.87Z"/>
      <path class="cls-6" d="M3.86,64.15c-1.14.06-1.44,1.46-2.53,1.6C.23,61.68-.12,57.53.03,53.33c1.01.09,1.76-.96,2.81-.64.02,3.85.45,7.66,1.01,11.46Z"/>
      <path class="cls-2" d="M89.38,13.6c-.79.53-1.83.74-2.24,1.75-2.77-1.94-5.39-4.09-8.35-5.76-.75-.42-1.09-1.24-.56-2.06.55-.86,1.45-.9,2.25-.43,2.28,1.34,4.6,2.67,6.51,4.51.76.73,1.75,1.13,2.39,1.98Z"/>
      <path class="cls-2" d="M24.49,64.49c-1.41-3.37-1.89-6.9-1.88-10.52,0-.96.6-1.52,1.5-1.48.79.03,1.31.51,1.39,1.43.19,2.21.45,4.41.7,6.61.12,1.05.92,1.88.93,2.96-.44.68-1.46-.43-1.43.14.06,1.24-.75.69-1.22.86Z"/>
      <path class="cls-7" d="M6.1,78.78c.8-.51,1.11-1.73,2.35-1.63,1.71,2.99,3.59,5.87,5.61,8.64-.09.24-.26.47-.27.71-.03,1.03-.28,1.52-1.34.75-.25-.18-.68-.12-1.02-.18-2.19-2.5-3.95-5.27-5.33-8.3Z"/>
      <path class="cls-7" d="M24.49,64.49c.47-.17,1.28.38,1.22-.86-.03-.57.99.53,1.43-.14,1.29,2.93,2.79,5.74,4.74,8.3-.05,1.12-.76,1.27-1.8,1.06.72.67,1.04,1.37.8,2.25-2.98-3.02-5.11-6.56-6.39-10.61Z"/>
      <path class="cls-3" d="M43.33,83.27c.03-.51-.07-.86-.66-1.06-.66-.22-.83-.88-.93-1.52.49-.02.92.06,1.22.53.75,1.18,1.77,1.29,2.98.73.41-.19.9-.23,1.35-.34.77.11,1.55.23,2.32.33.99.13,1.57.74,1.48,1.69-.09,1.01-.86,1.35-1.83,1.24-1.83-.2-3.61-.58-5.3-1.32-.16-.09-.32-.19-.48-.28l-.07.04-.08-.03Z"/>
      <path class="cls-5" d="M47.28,81.6c-.45.11-.93.15-1.35.34-1.21.56-2.23.46-2.98-.73-.3-.47-.73-.55-1.22-.53,0,0,0,0,0,0,.21-.2.42-.4.63-.6,1.75.16,3.31.92,4.92,1.52Z"/>
      <path class="cls-2" d="M17.93,52.4c-.52-.53-1.72-.09-1.79-1.32-.09-1.73.79-1.75,2.03-1.25-.03.86.13,1.74-.24,2.56Z"/>
      <path class="cls-3" d="M42.36,80.09c-.21.2-.42.4-.63.6-.78-.23-1.16-.61-.49-1.36.37.25.74.51,1.11.76Z"/>
      <path class="cls-3" d="M104.78,53.04c.37,1.16.42,2.32-.04,3.46.01-1.16.03-2.31.04-3.46Z"/>
      <path class="cls-3" d="M57.3,89.67c-.83.49-1.73.16-2.6.22.84-.38,1.72-.24,2.6-.22Z"/>
      <path class="cls-3" d="M55.44,92.68c.7-.45,1.48-.15,2.22-.22-.71.39-1.47.26-2.22.22Z"/>
      <path class="cls-1" d="M106.29,65.74c-.33-.03-.62-.13-.58-.55,0-.09.08-.21.15-.24.36-.14.39.22.54.39-.04.13-.07.27-.11.4Z"/>
      <path class="cls-7" d="M91.1,26.6c-.38-.04-.87,0-.41-.6.14.2.27.4.41.6Z"/>
      <path class="cls-5" d="M74.55,55.56c.15.09.41.16.43.27.05.33-.25.32-.48.36.02-.21.03-.43.05-.64Z"/>
      <path class="cls-3" d="M107.53,51.1c-.36-.3-.36-.61-.02-.93,0,.31.01.62.02.93Z"/>
      <path class="cls-4" d="M104.58,48.85c.16.08.38.12.3.39-.1-.07-.21-.13-.31-.2-.03-.07-.02-.13.01-.19Z"/>
      <path class="cls-5" d="M37.56,88.99c.12.09.24.18.37.26-.12-.09-.24-.18-.37-.26Z"/>
      <path class="cls-3" d="M91.71,61.45c.06-.15.13-.31.19-.46-.06.15-.13.31-.19.46Z"/>
      <path class="cls-5" d="M43.48,83.26c.16.09.32.19.48.28-.16-.09-.32-.19-.48-.28Z"/>
      <path class="cls-1" d="M106.63,63.87c0-.11-.02-.23-.03-.34l.02-.02s.13.02.13.02c-.04.12-.08.23-.12.35Z"/>
      <path class="cls-1" d="M106.6,63.52s-.08-.06-.13-.08c.05.02.1.04.15.06,0,0-.02.02-.02.02Z"/>
    </g>
  </g>
</svg>