<?xml version="1.0" encoding="UTF-8"?>
<svg id="Calque_2" data-name="Calque 2" xmlns="http://www.w3.org/2000/svg" viewBox="0 0 85.71 103.41">
  <defs>
    <style>
      .cls-1 {
        fill: none;
        stroke: #1d1d1b;
        stroke-miterlimit: 10;
        stroke-width: 4.5px;
      }

      .cls-2 {
        fill: #216cb4;
        stroke-width: 0px;
      }
    </style>
  </defs>
  <g id="Calque_1-2" data-name="Calque 1">
    <path class="cls-2" d="M48.02,48.36l3.03,9.02h-10.53l2.35-9.02c-1.88-.93-2.95-2.92-2.65-4.85.35-2.26,2.52-4.02,5.03-3.86,2.26.06,4.18,1.61,4.67,3.71.43,1.85-.31,3.83-1.89,5Z"/>
    <path class="cls-1" d="M84.6,25.62L44.19,2.59,2.37,26.43s-4.5,43.59,41.82,74.5c0,0,10.4-3.49,27.38-25.51"/>
    <path class="cls-1" d="M41.46,15.52L13.08,31.99s.1,34.45,31.42,56.17c0,0,23.74-12.12,31.01-50.81"/>
    <path class="cls-1" d="M31.76,60.37s3.43,7.88,12.53,15.25c0,0,17.37-12.53,20.61-38.08l-20.61-11.72-19.19,11.72"/>
  </g>
</svg>