<?xml version="1.0" encoding="UTF-8"?>
<svg id="PRINT" xmlns="http://www.w3.org/2000/svg" xmlns:xlink="http://www.w3.org/1999/xlink" viewBox="0 0 623.63 679.75">
  <defs>
    <style>
      .cls-1 {
        fill-rule: evenodd;
      }

      .cls-1, .cls-2, .cls-3, .cls-4, .cls-5, .cls-6, .cls-7, .cls-8, .cls-9, .cls-10, .cls-11, .cls-12, .cls-13, .cls-14, .cls-15, .cls-16, .cls-17, .cls-18, .cls-19 {
        stroke-width: 0px;
      }

      .cls-1, .cls-19 {
        fill: #fff;
      }

      .cls-20, .cls-21 {
        font-size: 18px;
      }

      .cls-20, .cls-21, .cls-22, .cls-23 {
        font-family: Montserrat-Bold, Montserrat;
        font-weight: 700;
      }

      .cls-20, .cls-7, .cls-22 {
        fill: #000042;
      }

      .cls-2 {
        fill: #1e88e5;
      }

      .cls-3 {
        fill: #64b5f6;
      }

      .cls-24 {
        letter-spacing: .05em;
      }

      .cls-25 {
        letter-spacing: -.02em;
      }

      .cls-4 {
        fill: #60a8e5;
      }

      .cls-21 {
        fill: #000530;
      }

      .cls-26 {
        letter-spacing: -.01em;
      }

      .cls-5 {
        fill: #5394fb;
      }

      .cls-27 {
        letter-spacing: .01em;
      }

      .cls-28 {
        letter-spacing: 0em;
      }

      .cls-6 {
        fill: #e4e5e5;
      }

      .cls-29 {
        letter-spacing: .04em;
      }

      .cls-30 {
        letter-spacing: .06em;
      }

      .cls-31 {
        letter-spacing: 0em;
      }

      .cls-8 {
        fill: #42a5f5;
      }

      .cls-32 {
        letter-spacing: 0em;
      }

      .cls-33 {
        letter-spacing: .04em;
      }

      .cls-9 {
        fill: #90caf9;
        opacity: .25;
      }

      .cls-34 {
        letter-spacing: 0em;
      }

      .cls-35 {
        letter-spacing: .04em;
      }

      .cls-36 {
        letter-spacing: 0em;
      }

      .cls-10 {
        fill: none;
      }

      .cls-11 {
        fill: #fcfff8;
      }

      .cls-37 {
        letter-spacing: .05em;
      }

      .cls-38 {
        letter-spacing: .1em;
      }

      .cls-12 {
        fill: #1d71d3;
      }

      .cls-13 {
        fill: #f5fbff;
      }

      .cls-39 {
        letter-spacing: 0em;
      }

      .cls-40 {
        letter-spacing: 0em;
      }

      .cls-41 {
        letter-spacing: .01em;
      }

      .cls-42 {
        letter-spacing: 0em;
      }

      .cls-43 {
        letter-spacing: -.02em;
      }

      .cls-44 {
        letter-spacing: .05em;
      }

      .cls-45 {
        letter-spacing: .05em;
      }

      .cls-46 {
        letter-spacing: 0em;
      }

      .cls-22 {
        font-size: 24px;
      }

      .cls-47 {
        letter-spacing: .02em;
      }

      .cls-48 {
        letter-spacing: 0em;
      }

      .cls-49 {
        letter-spacing: 0em;
      }

      .cls-14 {
        fill: #ecf0f1;
      }

      .cls-50 {
        letter-spacing: 0em;
      }

      .cls-51 {
        letter-spacing: 0em;
      }

      .cls-52 {
        letter-spacing: .04em;
      }

      .cls-15 {
        fill: #0076c6;
      }

      .cls-53 {
        letter-spacing: 0em;
      }

      .cls-54 {
        letter-spacing: .03em;
      }

      .cls-55 {
        letter-spacing: 0em;
      }

      .cls-56 {
        letter-spacing: -.04em;
      }

      .cls-57 {
        letter-spacing: .04em;
      }

      .cls-16 {
        fill: #5240cb;
      }

      .cls-17 {
        fill: #2f2f2f;
      }

      .cls-18 {
        fill: #d1d1d6;
      }

      .cls-58 {
        letter-spacing: .03em;
      }

      .cls-59 {
        letter-spacing: .02em;
      }

      .cls-60 {
        letter-spacing: -.01em;
      }

      .cls-23 {
        fill: #000;
        font-size: 10px;
      }

      .cls-61 {
        letter-spacing: 0em;
      }

      .cls-62 {
        letter-spacing: 0em;
      }

      .cls-63 {
        letter-spacing: .06em;
      }
    </style>
  </defs>
  <rect class="cls-13" y="56.13" width="623.63" height="623.63"/>
  <circle class="cls-9" cx="331.06" cy="354.08" r="137.02"/>
  <circle class="cls-17" cx="40.7" cy="649.9" r="8.87" transform="translate(-447.63 219.13) rotate(-45)"/>
  <circle class="cls-17" cx="62.84" cy="649.9" r="8.87" transform="translate(-243.92 73.52) rotate(-22.5)"/>
  <path class="cls-1" d="M109.96,646.27c-.96-.96-2.23-1.49-3.59-1.49-2.8,0-5.07,2.28-5.07,5.07,0,.89.23,1.77.68,2.54l-.72,2.63,2.69-.71c.74.4,1.58.62,2.42.62h0c2.8,0,5.07-2.28,5.07-5.07,0-1.36-.53-2.63-1.48-3.59M106.37,654.07h0c-.76,0-1.5-.2-2.15-.59l-.15-.09-1.6.42.43-1.56-.1-.16c-.42-.67-.65-1.45-.64-2.24,0-2.32,1.89-4.22,4.22-4.22,1.13,0,2.19.44,2.98,1.24s1.23,1.86,1.23,2.98c0,2.32-1.89,4.22-4.22,4.22"/>
  <path class="cls-19" d="M40.7,645.59c1.4,0,1.57,0,2.12.03.51.02.79.11.98.18.25.1.42.21.6.39.18.18.3.36.39.6.07.19.16.46.18.98.03.55.03.72.03,2.12s0,1.57-.03,2.12c-.02.51-.11.79-.18.98-.1.25-.21.42-.39.6-.18.18-.36.3-.6.39-.19.07-.46.16-.98.18-.55.03-.72.03-2.12.03s-1.57,0-2.12-.03c-.51-.02-.79-.11-.98-.18-.25-.1-.42-.21-.6-.39-.18-.18-.3-.36-.39-.6-.07-.19-.16-.46-.18-.98-.03-.55-.03-.72-.03-2.12s0-1.57.03-2.12c.02-.51.11-.79.18-.98.1-.25.21-.42.39-.6.18-.18.36-.3.6-.39.19-.07.46-.16.98-.18.55-.03.72-.03,2.12-.03M40.7,644.64c-1.43,0-1.61,0-2.17.03-.56.03-.94.11-1.28.24-.35.13-.64.31-.93.61-.29.29-.47.59-.61.93-.13.33-.22.72-.24,1.28-.03.56-.03.74-.03,2.17s0,1.61.03,2.17c.03.56.11.94.24,1.28.13.35.31.64.61.93.29.29.59.47.93.61.33.13.72.22,1.28.24.56.03.74.03,2.17.03s1.61,0,2.17-.03c.56-.03.94-.11,1.28-.24.35-.13.64-.31.93-.61.29-.29.47-.59.61-.93.13-.33.22-.72.24-1.28.03-.56.03-.74.03-2.17s0-1.61-.03-2.17c-.03-.56-.11-.94-.24-1.28-.13-.35-.31-.64-.61-.93-.29-.29-.59-.47-.93-.61-.33-.13-.72-.22-1.28-.24-.56-.03-.74-.03-2.17-.03"/>
  <path class="cls-19" d="M40.7,646.8c-1.49,0-2.7,1.21-2.7,2.7s1.21,2.7,2.7,2.7,2.7-1.21,2.7-2.7-1.21-2.7-2.7-2.7M40.7,651.25c-.97,0-1.75-.78-1.75-1.75s.78-1.75,1.75-1.75,1.75.78,1.75,1.75-.78,1.75-1.75,1.75"/>
  <path class="cls-19" d="M63.63,654.96v-4.62h1.55l.23-1.8h-1.78v-1.15c0-.52.14-.88.89-.88h.95v-1.61c-.16-.02-.73-.07-1.39-.07-1.38,0-2.32.84-2.32,2.38v1.33h-1.56v1.8h1.56v4.62h1.86Z"/>
  <text class="cls-23" transform="translate(395.91 654.11)"><tspan class="cls-24" x="0" y="0">h</tspan><tspan class="cls-33" x="7.41" y="0">t</tspan><tspan class="cls-37" x="12.14" y="0">tps</tspan><tspan class="cls-38" x="30.2" y="0">:</tspan><tspan class="cls-25" x="33.85" y="0">/</tspan><tspan class="cls-26" x="37.54" y="0">/</tspan><tspan class="cls-29" x="41.32" y="0">c</tspan><tspan class="cls-37" x="47.65" y="0">ybe</tspan><tspan class="cls-45" x="68.34" y="0">r</tspan><tspan class="cls-24" x="73.11" y="0">p</tspan><tspan class="cls-57" x="80.51" y="0">r</tspan><tspan class="cls-24" x="85.23" y="0">o</tspan><tspan class="cls-54" x="92.28" y="0">t</tspan><tspan class="cls-37" x="96.96" y="0">e</tspan><tspan class="cls-63" x="103.77" y="0">c</tspan><tspan class="cls-30" x="110.26" y="0">t</tspan><tspan class="cls-52" x="115.21" y="0">.</tspan><tspan class="cls-35" x="118.26" y="0">e</tspan><tspan class="cls-58" x="124.97" y="0">v</tspan><tspan class="cls-24" x="131.27" y="0">an</tspan><tspan class="cls-44" x="145.35" y="0">m</tspan><tspan class="cls-24" x="156.38" y="0">oulin.</tspan><tspan class="cls-44" x="188.35" y="0">f</tspan><tspan class="cls-24" x="192.76" y="0">r</tspan></text>
  <path class="cls-8" d="M89.2,234.01v-4.31h-2.35c-.32-1.82-1.03-3.5-2.05-4.95l1.66-1.66-3.05-3.05-1.66,1.66c-1.45-1.02-3.13-1.73-4.95-2.05v-2.35h-4.31v2.35c-1.82.32-3.5,1.03-4.95,2.05l-1.66-1.66-3.05,3.05,1.66,1.66c-1.02,1.45-1.73,3.13-2.05,4.95h-2.35v4.31h2.35c.32,1.82,1.03,3.5,2.05,4.95l-1.66,1.66,3.05,3.05,1.66-1.66c1.45,1.02,3.13,1.73,4.95,2.05v2.35h4.31v-2.35c1.82-.32,3.5-1.03,4.95-2.05l1.66,1.66,3.05-3.05-1.66-1.66c1.02-1.45,1.73-3.13,2.05-4.95h2.35ZM74.64,240c-4.5,0-8.14-3.65-8.14-8.14s3.64-8.14,8.14-8.14,8.14,3.64,8.14,8.14-3.65,8.14-8.14,8.14Z"/>
  <path class="cls-8" d="M137.13,432.24v-3.85h-2.11c-.29-1.63-.92-3.13-1.83-4.43l1.49-1.49-2.73-2.73-1.49,1.49c-1.3-.91-2.8-1.54-4.43-1.83v-2.11h-3.85v2.11c-1.63.28-3.13.92-4.43,1.83l-1.49-1.49-2.73,2.72,1.49,1.49c-.91,1.3-1.54,2.8-1.83,4.43h-2.11v3.85h2.11c.28,1.62.92,3.13,1.83,4.43l-1.49,1.49,2.72,2.73,1.49-1.49c1.3.91,2.8,1.55,4.43,1.83v2.11h3.85v-2.11c1.63-.29,3.13-.92,4.43-1.83l1.49,1.49,2.73-2.73-1.49-1.49c.91-1.3,1.54-2.8,1.83-4.43h2.11ZM124.12,437.59c-4.02,0-7.28-3.26-7.28-7.28s3.26-7.28,7.28-7.28,7.28,3.26,7.28,7.28-3.26,7.28-7.28,7.28Z"/>
  <path class="cls-16" d="M113.06,457.32v-2.68h-1.46c-.2-1.13-.64-2.17-1.27-3.08l1.03-1.03-1.89-1.89-1.03,1.03c-.9-.63-1.95-1.07-3.08-1.27v-1.46h-2.68v1.46c-1.13.2-2.17.64-3.08,1.27l-1.03-1.03-1.89,1.89,1.03,1.03c-.63.9-1.07,1.95-1.27,3.08h-1.46v2.68h1.46c.2,1.13.64,2.17,1.27,3.08l-1.03,1.03,1.89,1.89,1.03-1.03c.9.63,1.95,1.07,3.08,1.27v1.46h2.68v-1.46c1.13-.2,2.17-.64,3.08-1.27l1.03,1.03,1.89-1.89-1.03-1.03c.63-.9,1.07-1.95,1.27-3.08h1.46ZM104.01,461.05c-2.79,0-5.06-2.27-5.06-5.06s2.27-5.06,5.06-5.06,5.06,2.27,5.06,5.06-2.27,5.06-5.06,5.06Z"/>
  <path class="cls-16" d="M401.86,551.87v-4.35h-2.38c-.32-1.84-1.04-3.53-2.07-5l1.68-1.68-3.08-3.08-1.68,1.68c-1.47-1.03-3.16-1.74-5-2.07v-2.38h-4.35v2.38c-1.84.32-3.53,1.04-5,2.07l-1.68-1.68-3.08,3.08,1.68,1.68c-1.03,1.47-1.75,3.16-2.07,5h-2.38v4.35h2.38c.32,1.84,1.04,3.53,2.07,5l-1.68,1.68,3.08,3.08,1.68-1.68c1.47,1.03,3.17,1.75,5,2.07v2.38h4.35v-2.38c1.84-.32,3.53-1.04,5-2.07l1.68,1.68,3.08-3.08-1.68-1.68c1.03-1.47,1.75-3.16,2.07-5h2.38ZM387.16,557.92c-4.54,0-8.23-3.68-8.23-8.23s3.68-8.23,8.23-8.23,8.23,3.68,8.23,8.23-3.68,8.23-8.23,8.23Z"/>
  <path class="cls-16" d="M568.76,423.03l5.03-5.03c.76-.76.76-1.99,0-2.74-.76-.76-1.99-.76-2.74,0l-5.03,5.03-5.03-5.03c-.76-.76-1.99-.76-2.74,0-.76.76-.76,1.99,0,2.74l5.03,5.03-5.03,5.03c-.76.76-.76,1.99,0,2.74s1.99.76,2.74,0l5.03-5.03,5.03,5.03c.76.76,1.99.76,2.74,0,.76-.76.76-1.99,0-2.74l-5.03-5.03Z"/>
  <path class="cls-16" d="M517.66,236.55v-4.27c0-.64-.52-1.16-1.16-1.16-.64,0-1.16.52-1.16,1.16v4.27h-4.27c-.64,0-1.16.52-1.16,1.16s.52,1.16,1.16,1.16h4.27v4.27c0,.64.52,1.16,1.16,1.16.64,0,1.16-.52,1.16-1.16v-4.27s4.27,0,4.27,0c.64,0,1.16-.52,1.16-1.16,0-.64-.52-1.16-1.16-1.16h-4.27Z"/>
  <path class="cls-16" d="M535.06,236.55v-4.27c0-.64-.52-1.16-1.16-1.16-.64,0-1.16.52-1.16,1.16v4.27h-4.27c-.64,0-1.16.52-1.16,1.16s.52,1.16,1.16,1.16h4.27v4.27c0,.64.52,1.16,1.16,1.16s1.16-.52,1.16-1.16v-4.27s4.27,0,4.27,0c.64,0,1.16-.52,1.16-1.16,0-.64-.52-1.16-1.16-1.16h-4.27Z"/>
  <path class="cls-16" d="M517.66,219.16v-4.27c0-.64-.52-1.16-1.16-1.16-.64,0-1.16.52-1.16,1.16v4.27h-4.27c-.64,0-1.16.52-1.16,1.16s.52,1.16,1.16,1.16h4.27v4.27c0,.64.52,1.16,1.16,1.16.64,0,1.16-.52,1.16-1.16v-4.27s4.27,0,4.27,0c.64,0,1.16-.52,1.16-1.16,0-.64-.52-1.16-1.16-1.16h-4.27Z"/>
  <path class="cls-16" d="M517.66,253.94v-4.27c0-.64-.52-1.16-1.16-1.16-.64,0-1.16.52-1.16,1.16v4.27h-4.27c-.64,0-1.16.52-1.16,1.16s.52,1.16,1.16,1.16h4.27v4.27c0,.64.52,1.16,1.16,1.16.64,0,1.16-.52,1.16-1.16v-4.27s4.27,0,4.27,0c.64,0,1.16-.52,1.16-1.16,0-.64-.52-1.16-1.16-1.16h-4.27Z"/>
  <path class="cls-16" d="M535.06,253.94v-4.27c0-.64-.52-1.16-1.16-1.16-.64,0-1.16.52-1.16,1.16v4.27h-4.27c-.64,0-1.16.52-1.16,1.16s.52,1.16,1.16,1.16h4.27v4.27c0,.64.52,1.16,1.16,1.16s1.16-.52,1.16-1.16v-4.27s4.27,0,4.27,0c.64,0,1.16-.52,1.16-1.16,0-.64-.52-1.16-1.16-1.16h-4.27Z"/>
  <path class="cls-16" d="M552.45,253.94v-4.27c0-.64-.52-1.16-1.16-1.16-.64,0-1.16.52-1.16,1.16v4.27h-4.27c-.64,0-1.16.52-1.16,1.16s.52,1.16,1.16,1.16h4.27v4.27c0,.64.52,1.16,1.16,1.16.64,0,1.16-.52,1.16-1.16v-4.27s4.27,0,4.27,0c.64,0,1.16-.52,1.16-1.16,0-.64-.52-1.16-1.16-1.16h-4.27Z"/>
  <path class="cls-16" d="M517.66,271.34v-4.27c0-.64-.52-1.16-1.16-1.16-.64,0-1.16.52-1.16,1.16v4.27h-4.27c-.64,0-1.16.52-1.16,1.16s.52,1.16,1.16,1.16h4.27v4.27c0,.64.52,1.16,1.16,1.16.64,0,1.16-.52,1.16-1.16v-4.27s4.27,0,4.27,0c.64,0,1.16-.52,1.16-1.16,0-.64-.52-1.16-1.16-1.16h-4.27Z"/>
  <path class="cls-16" d="M535.06,271.34v-4.27c0-.64-.52-1.16-1.16-1.16-.64,0-1.16.52-1.16,1.16v4.27h-4.27c-.64,0-1.16.52-1.16,1.16s.52,1.16,1.16,1.16h4.27v4.27c0,.64.52,1.16,1.16,1.16s1.16-.52,1.16-1.16v-4.27s4.27,0,4.27,0c.64,0,1.16-.52,1.16-1.16,0-.64-.52-1.16-1.16-1.16h-4.27Z"/>
  <path class="cls-16" d="M552.45,271.34v-4.27c0-.64-.52-1.16-1.16-1.16-.64,0-1.16.52-1.16,1.16v4.27h-4.27c-.64,0-1.16.52-1.16,1.16s.52,1.16,1.16,1.16h4.27v4.27c0,.64.52,1.16,1.16,1.16.64,0,1.16-.52,1.16-1.16v-4.27s4.27,0,4.27,0c.64,0,1.16-.52,1.16-1.16,0-.64-.52-1.16-1.16-1.16h-4.27Z"/>
  <path class="cls-16" d="M569.84,271.34v-4.27c0-.64-.52-1.16-1.16-1.16-.64,0-1.16.52-1.16,1.16v4.27h-4.27c-.64,0-1.16.52-1.16,1.16s.52,1.16,1.16,1.16h4.27v4.27c0,.64.52,1.16,1.16,1.16.64,0,1.16-.52,1.16-1.16v-4.27h4.27c.64,0,1.16-.52,1.16-1.16,0-.64-.52-1.16-1.16-1.16h-4.27Z"/>
  <path class="cls-2" d="M39.77,394.43h-4.27c-.64,0-1.16.52-1.16,1.16,0,.64.52,1.16,1.16,1.16h4.27v4.27c0,.64.52,1.16,1.16,1.16s1.16-.52,1.16-1.16v-4.27h4.27c.64,0,1.16-.52,1.16-1.16,0-.64-.52-1.16-1.16-1.16h-4.27s0-4.27,0-4.27c0-.64-.52-1.16-1.16-1.16-.64,0-1.16.52-1.16,1.16v4.27Z"/>
  <path class="cls-2" d="M39.77,377.04h-4.27c-.64,0-1.16.52-1.16,1.16,0,.64.52,1.16,1.16,1.16h4.27v4.27c0,.64.52,1.16,1.16,1.16s1.16-.52,1.16-1.16v-4.27h4.27c.64,0,1.16-.52,1.16-1.16,0-.64-.52-1.16-1.16-1.16h-4.27s0-4.27,0-4.27c0-.64-.52-1.16-1.16-1.16-.64,0-1.16.52-1.16,1.16v4.27Z"/>
  <path class="cls-2" d="M39.77,359.65h-4.27c-.64,0-1.16.52-1.16,1.16,0,.64.52,1.16,1.16,1.16h4.27v4.27c0,.64.52,1.16,1.16,1.16s1.16-.52,1.16-1.16v-4.27h4.27c.64,0,1.16-.52,1.16-1.16,0-.64-.52-1.16-1.16-1.16h-4.27s0-4.27,0-4.27c0-.64-.52-1.16-1.16-1.16-.64,0-1.16.52-1.16,1.16v4.27Z"/>
  <path class="cls-2" d="M39.77,342.26h-4.27c-.64,0-1.16.52-1.16,1.16,0,.64.52,1.16,1.16,1.16h4.27v4.27c0,.64.52,1.16,1.16,1.16s1.16-.52,1.16-1.16v-4.27h4.27c.64,0,1.16-.52,1.16-1.16s-.52-1.16-1.16-1.16h-4.27s0-4.27,0-4.27c0-.64-.52-1.16-1.16-1.16-.64,0-1.16.52-1.16,1.16v4.27Z"/>
  <path class="cls-2" d="M57.16,394.43h-4.27c-.64,0-1.16.52-1.16,1.16,0,.64.52,1.16,1.16,1.16h4.27v4.27c0,.64.52,1.16,1.16,1.16s1.16-.52,1.16-1.16v-4.27h4.27c.64,0,1.16-.52,1.16-1.16,0-.64-.52-1.16-1.16-1.16h-4.27s0-4.27,0-4.27c0-.64-.52-1.16-1.16-1.16-.64,0-1.16.52-1.16,1.16v4.27Z"/>
  <path class="cls-2" d="M57.16,377.04h-4.27c-.64,0-1.16.52-1.16,1.16,0,.64.52,1.16,1.16,1.16h4.27v4.27c0,.64.52,1.16,1.16,1.16s1.16-.52,1.16-1.16v-4.27h4.27c.64,0,1.16-.52,1.16-1.16,0-.64-.52-1.16-1.16-1.16h-4.27s0-4.27,0-4.27c0-.64-.52-1.16-1.16-1.16-.64,0-1.16.52-1.16,1.16v4.27Z"/>
  <path class="cls-2" d="M57.16,359.65h-4.27c-.64,0-1.16.52-1.16,1.16,0,.64.52,1.16,1.16,1.16h4.27v4.27c0,.64.52,1.16,1.16,1.16s1.16-.52,1.16-1.16v-4.27h4.27c.64,0,1.16-.52,1.16-1.16,0-.64-.52-1.16-1.16-1.16h-4.27s0-4.27,0-4.27c0-.64-.52-1.16-1.16-1.16-.64,0-1.16.52-1.16,1.16v4.27Z"/>
  <path class="cls-2" d="M57.16,342.26h-4.27c-.64,0-1.16.52-1.16,1.16,0,.64.52,1.16,1.16,1.16h4.27v4.27c0,.64.52,1.16,1.16,1.16s1.16-.52,1.16-1.16v-4.27h4.27c.64,0,1.16-.52,1.16-1.16s-.52-1.16-1.16-1.16h-4.27s0-4.27,0-4.27c0-.64-.52-1.16-1.16-1.16-.64,0-1.16.52-1.16,1.16v4.27Z"/>
  <path class="cls-2" d="M74.56,394.43h-4.27c-.64,0-1.16.52-1.16,1.16,0,.64.52,1.16,1.16,1.16h4.27v4.27c0,.64.52,1.16,1.16,1.16s1.16-.52,1.16-1.16v-4.27h4.27c.64,0,1.16-.52,1.16-1.16,0-.64-.52-1.16-1.16-1.16h-4.27s0-4.27,0-4.27c0-.64-.52-1.16-1.16-1.16-.64,0-1.16.52-1.16,1.16v4.27Z"/>
  <path class="cls-2" d="M74.56,377.04h-4.27c-.64,0-1.16.52-1.16,1.16,0,.64.52,1.16,1.16,1.16h4.27v4.27c0,.64.52,1.16,1.16,1.16s1.16-.52,1.16-1.16v-4.27h4.27c.64,0,1.16-.52,1.16-1.16,0-.64-.52-1.16-1.16-1.16h-4.27s0-4.27,0-4.27c0-.64-.52-1.16-1.16-1.16-.64,0-1.16.52-1.16,1.16v4.27Z"/>
  <path class="cls-2" d="M74.56,359.65h-4.27c-.64,0-1.16.52-1.16,1.16,0,.64.52,1.16,1.16,1.16h4.27v4.27c0,.64.52,1.16,1.16,1.16s1.16-.52,1.16-1.16v-4.27h4.27c.64,0,1.16-.52,1.16-1.16,0-.64-.52-1.16-1.16-1.16h-4.27s0-4.27,0-4.27c0-.64-.52-1.16-1.16-1.16-.64,0-1.16.52-1.16,1.16v4.27Z"/>
  <path class="cls-2" d="M74.56,342.26h-4.27c-.64,0-1.16.52-1.16,1.16,0,.64.52,1.16,1.16,1.16h4.27v4.27c0,.64.52,1.16,1.16,1.16s1.16-.52,1.16-1.16v-4.27h4.27c.64,0,1.16-.52,1.16-1.16s-.52-1.16-1.16-1.16h-4.27s0-4.27,0-4.27c0-.64-.52-1.16-1.16-1.16-.64,0-1.16.52-1.16,1.16v4.27Z"/>
  <path class="cls-16" d="M247.86,367.09l5.03-5.03c.76-.76.76-1.99,0-2.74-.76-.76-1.99-.76-2.74,0l-5.03,5.03-5.03-5.03c-.76-.76-1.99-.76-2.74,0-.76.76-.76,1.99,0,2.74l5.03,5.03-5.03,5.03c-.76.76-.76,1.99,0,2.74s1.99.76,2.74,0l5.03-5.03,5.03,5.03c.76.76,1.99.76,2.74,0,.76-.76.76-1.99,0-2.74l-5.03-5.03Z"/>
  <path class="cls-8" d="M572.85,515.02l5.03-5.03c.76-.76.76-1.99,0-2.74-.76-.76-1.99-.76-2.74,0l-5.03,5.03-5.03-5.03c-.76-.76-1.99-.76-2.74,0-.76.76-.76,1.99,0,2.74l5.03,5.03-5.03,5.03c-.76.76-.76,1.99,0,2.74s1.99.76,2.74,0l5.03-5.03,5.03,5.03c.76.76,1.99.76,2.74,0,.76-.76.76-1.99,0-2.74l-5.03-5.03Z"/>
  <path class="cls-8" d="M266.27,188.6l5.03-5.03c.76-.76.76-1.99,0-2.74-.76-.76-1.99-.76-2.74,0l-5.03,5.03-5.03-5.03c-.76-.76-1.99-.76-2.74,0-.76.76-.76,1.99,0,2.74l5.03,5.03-5.03,5.03c-.76.76-.76,1.99,0,2.74s1.99.76,2.74,0l5.03-5.03,5.03,5.03c.76.76,1.99.76,2.74,0,.76-.76.76-1.99,0-2.74l-5.03-5.03Z"/>
  <path class="cls-8" d="M91.94,542.83l5.03-5.03c.76-.76.76-1.99,0-2.74s-1.99-.76-2.74,0l-5.03,5.03-5.03-5.03c-.76-.76-1.99-.76-2.74,0-.76.76-.76,1.99,0,2.74l5.03,5.03-5.03,5.03c-.76.76-.76,1.99,0,2.74.76.76,1.99.76,2.74,0l5.03-5.03,5.03,5.03c.76.76,1.99.76,2.74,0,.76-.76.76-1.99,0-2.74l-5.03-5.03Z"/>
  <path class="cls-8" d="M436.72,201.89c-5.48,0-9.94-4.46-9.94-9.94s4.46-9.94,9.94-9.94,9.94,4.46,9.94,9.94-4.46,9.94-9.94,9.94ZM436.72,186.39c-3.07,0-5.56,2.49-5.56,5.56s2.5,5.56,5.56,5.56,5.56-2.49,5.56-5.56-2.49-5.56-5.56-5.56Z"/>
  <path class="cls-8" d="M553.38,341.49c-5.48,0-9.94-4.46-9.94-9.94s4.46-9.94,9.94-9.94,9.94,4.46,9.94,9.94-4.46,9.94-9.94,9.94ZM553.38,325.98c-3.07,0-5.56,2.49-5.56,5.56s2.49,5.56,5.56,5.56,5.56-2.49,5.56-5.56-2.5-5.56-5.56-5.56Z"/>
  <path class="cls-2" d="M241.48,552.77c-5.48,0-9.94-4.46-9.94-9.94s4.46-9.94,9.94-9.94,9.94,4.46,9.94,9.94-4.46,9.94-9.94,9.94ZM241.48,537.27c-3.07,0-5.56,2.49-5.56,5.56s2.49,5.56,5.56,5.56,5.56-2.49,5.56-5.56-2.49-5.56-5.56-5.56Z"/>
  <path class="cls-16" d="M440.91,463.26c-2.31,0-4.19-1.88-4.19-4.19v-34.3c0-14.43,11.74-26.18,26.18-26.18s26.18,11.74,26.18,26.18c0,2.31-1.88,4.19-4.19,4.19s-4.19-1.88-4.19-4.19c0-9.81-7.98-17.79-17.79-17.79s-17.79,7.98-17.79,17.79v34.3c0,2.31-1.88,4.19-4.19,4.19Z"/>
  <rect class="cls-3" x="429.64" y="444.3" width="66.51" height="59.32" rx="7.25" ry="7.25"/>
  <path class="cls-15" d="M463.97,503.61h-26.73c-4.2,0-7.6-3.4-7.6-7.6v-44.12c0-4.2,3.4-7.6,7.6-7.6h26.73v59.32Z"/>
  <circle class="cls-17" cx="462.9" cy="470.53" r="6.71"/>
  <path class="cls-17" d="M462.9,485.59h0c-1.17,0-2.12-.95-2.12-2.12v-7.76c0-1.17.95-2.12,2.12-2.12h0c1.17,0,2.12.95,2.12,2.12v7.76c0,1.17-.95,2.12-2.12,2.12Z"/>
  <path class="cls-16" d="M196.29,273.89c2.94-3.49,2.99-8.15,2.99-8.22v-36.56c1.47-.43,2.55-1.78,2.55-3.39,0-1.95-1.59-3.54-3.54-3.54s-3.54,1.59-3.54,3.54c0,1.61,1.08,2.95,2.55,3.39v36.56c0,.26-.06,4.42-2.82,7.29l1.81.93ZM198.29,227.72c-1.1,0-1.99-.89-1.99-1.99s.89-1.99,1.99-1.99,1.99.9,1.99,1.99-.89,1.99-1.99,1.99Z"/>
  <path class="cls-16" d="M198.15,223.61c-.23,0-.42-.24-.42-.53V70.83c0-.29.19-.53.42-.53s.42.24.42.53v152.26c0,.29-.19.53-.42.53Z"/>
  <g>
    <path class="cls-3" d="M208.45,270.64l29.39.02c3.02,0,5.47,2.45,5.47,5.48l-.04,54.73c0,3.02-2.45,5.47-5.48,5.47l-94.86-.07c-3.02,0-5.47-2.45-5.47-5.48l.04-54.73c0-3.02,2.45-5.47,5.48-5.47l65.47.05Z"/>
    <path class="cls-15" d="M190.89,270.63l-47.91-.03c-3.02,0-5.47,2.45-5.48,5.47l-.04,54.73c0,3.02,2.45,5.47,5.47,5.48l48.51.04-.55-65.68Z"/>
    <path class="cls-14" d="M215.94,281.38c4.03,0,7.29,3.27,7.29,7.3,0,4.03-3.27,7.29-7.3,7.29-4.03,0-7.29-3.27-7.29-7.3s3.27-7.29,7.3-7.29Z"/>
    <path class="cls-17" d="M227.71,281.39c4.03,0,7.29,3.27,7.29,7.3,0,4.03-3.27,7.29-7.3,7.29-4.03,0-7.29-3.27-7.29-7.3,0-4.03,3.27-7.29,7.3-7.29Z"/>
    <path class="cls-14" d="M177.61,309.35l-27.36-.02c-1.01,0-1.82-.82-1.82-1.83,0-1.01.82-1.82,1.83-1.82l27.36.02c1.01,0,1.82.82,1.82,1.83,0,1.01-.82,1.82-1.83,1.82Z"/>
    <path class="cls-14" d="M230.51,318.51l-27.36-.02c-1.01,0-1.82-.82-1.82-1.83,0-1.01.82-1.82,1.83-1.82l27.36.02c1.01,0,1.82.82,1.82,1.83,0,1.01-.82,1.82-1.83,1.82Z"/>
    <path class="cls-14" d="M194.02,318.48l-43.78-.03c-1.01,0-1.82-.82-1.82-1.83,0-1.01.82-1.82,1.83-1.82l43.78.03c1.01,0,1.82.82,1.82,1.83,0,1.01-.82,1.82-1.83,1.82Z"/>
    <path class="cls-17" d="M168.51,278.33h-3.65s-9.12,0-9.12,0h-3.65c-2.01,0-3.65,1.63-3.65,3.64v7.3s-.01,7.3-.01,7.3c0,2.01,1.63,3.65,3.65,3.65h3.65s9.12,0,9.12,0h3.65c2.01,0,3.65-1.63,3.65-3.64v-7.3s.01-7.3.01-7.3c0-2.02-1.63-3.65-3.65-3.65Z"/>
  </g>
  <path class="cls-17" d="M185.87,331.55c0,.92-.75,1.67-1.67,1.67s-1.67-.75-1.67-1.67c0-.92.75-1.67,1.67-1.67.92,0,1.67.75,1.67,1.67Z"/>
  <path class="cls-17" d="M192.03,331.55c0,.92-.75,1.67-1.67,1.67-.92,0-1.67-.75-1.67-1.67,0-.92.75-1.67,1.67-1.67.92,0,1.67.75,1.67,1.67Z"/>
  <path class="cls-17" d="M198.2,331.56c0,.92-.75,1.67-1.67,1.67-.92,0-1.67-.75-1.67-1.67,0-.92.75-1.67,1.67-1.67.92,0,1.67.75,1.67,1.67Z"/>
  <path class="cls-16" d="M182.66,273.78c-.96-.93-1.7-2.32-1.7-4.4v-8.51l.12-.03,2.71.6-4.82-6.08v6.08h.01s0,7.95,0,7.95c0,3.17,1.03,4.9,2.73,6.16l.94-1.76Z"/>
  <path class="cls-7" d="M292.02,372.45l-1.07-2.07h-7.87c-9.03,0-16.62-6.78-17.63-15.75l-1.37-12.17c-.62-5.54,1.78-10.98,6.28-14.26l9.05-6.58-1.86-2.6-9.3,7.07c-4.91,3.73-7.52,9.74-6.91,15.88l3.1,31.05,27.58-.57Z"/>
  <path class="cls-7" d="M276.73,271.58l18.23,89.26s-12.1-8.97-20.31-38.01c-8.21-29.03,2.08-51.25,2.08-51.25Z"/>
  <rect class="cls-7" x="373.39" y="421.22" width="4.65" height="65.51"/>
  <polygon class="cls-7" points="375.72 485.61 352.74 496.3 352.74 499.4 355.56 500.73 375.72 492.91 375.72 484.49 375.72 485.61"/>
  <path class="cls-7" d="M357.34,499.4c0,2.54-2.06,4.6-4.6,4.6s-4.6-2.06-4.6-4.6,2.06-4.6,4.6-4.6,4.6,2.06,4.6,4.6Z"/>
  <polygon class="cls-7" points="375.72 485.61 398.69 496.3 398.69 499.4 395.87 500.73 375.72 492.91 375.72 484.49 375.72 485.61"/>
  <path class="cls-7" d="M394.1,499.4c0,2.54,2.06,4.6,4.6,4.6s4.6-2.06,4.6-4.6-2.06-4.6-4.6-4.6-4.6,2.06-4.6,4.6Z"/>
  <rect class="cls-7" x="371.1" y="427.98" width="9.22" height="26.36"/>
  <rect class="cls-7" x="369.1" y="444.13" width="2.81" height="2.69"/>
  <rect class="cls-7" x="367.97" y="442.86" width="1.28" height="5.21"/>
  <rect class="cls-7" x="215.59" y="435.47" width="127.94" height="8.19" transform="translate(719.12 160) rotate(90)"/>
  <path class="cls-12" d="M261.29,490.12c1.22-.03,108.97-68.44,108.97-68.44l-19.89-15s-59.87,41.94-67.93,46.42c-8.06,4.48-10.31-.46-13.33,5.87-3.02,6.33-1.32,10.77-6.89,9.81-5.56-.96-6.71,7.92-6.71,7.92l5.77,13.41Z"/>
  <path class="cls-7" d="M255.51,476.71l-19.44,9.79s-17.67-7.67-18.97-6.93c-1.3.73,22.19,23.96,22.19,23.96l21.99-13.41-5.77-13.41Z"/>
  <path class="cls-7" d="M236.01,488.57l-.33-.77c-.69-1.59-6.65-15.6-4.47-18.35.25-.31.72-.65,1.55-.5,1.81.33,2.76,6.59,3.25,11.87.38-3.9,1.15-8.21,2.71-9.31.44-.31.94-.38,1.45-.21.51.18.89.55,1.1,1.1,1.41,3.59-4.6,14.95-4.86,15.43l-.4.74ZM239.63,472.02c-.15,0-.3.05-.44.15-1.85,1.31-2.52,9.17-2.69,13.7,1.93-3.9,4.93-10.84,4.01-13.17-.13-.33-.32-.53-.61-.63-.09-.03-.18-.05-.27-.05ZM232.36,469.72c-.3,0-.44.13-.52.23-1.25,1.58,1.33,9.53,3.69,15.38-.45-7.83-1.59-15.34-2.92-15.59-.09-.02-.17-.03-.25-.03Z"/>
  <path class="cls-7" d="M325.81,498.07l-.76-.36c-1.57-.74-15.3-7.33-15.47-10.83-.02-.4.11-.96.83-1.4,1.56-.93,6.42,3.12,10.28,6.76-2.29-3.18-4.56-6.92-4.11-8.78.13-.53.46-.91.95-1.11.5-.21,1.03-.17,1.55.1,3.43,1.77,6.41,14.26,6.54,14.8l.19.82ZM311.1,486.12c-.11,0-.2.02-.28.07-.41.25-.45.49-.44.66.1,2.01,7.29,6.28,12.93,9.12-5.15-5.22-10.58-9.84-12.21-9.84ZM318.18,483.04c-.12,0-.24.03-.35.07-.26.1-.4.28-.47.55-.53,2.2,4.16,8.55,7.03,12.06-1.13-4.2-3.46-11.4-5.68-12.54-.18-.1-.35-.14-.52-.14Z"/>
  <path class="cls-12" d="M365.22,391.26s-60.46,23.53-62.62,26.86c-2.16,3.33,9.76,33.94,14,39.19,2.3,2.84-2.42,6.9-.19,10.55,5.43,8.9,1.21,8.82,5.56,13.45l13.88-4.3-5.55-48.62s48.51-7.05,62.23-9.63c13.73-2.58,6.93-31.57,6.93-31.57l-34.25,4.06Z"/>
  <path class="cls-7" d="M339.49,503.99l-3.64-26.97-13.88,4.3,2.01,14.42c-4.12,1.41-13.92,8.25-13.92,8.25h29.43Z"/>
  <path class="cls-7" d="M309.98,435.14c-.13,0-.26-.06-.34-.18-.12-.19-.07-.44.12-.56l53.54-35.31.56-4.74c.03-.22.22-.38.45-.36.22.03.38.23.36.45l-.58,4.92c-.01.12-.08.23-.18.29l-53.7,35.41c-.07.04-.15.07-.22.07Z"/>
  <path class="cls-7" d="M328.8,422.64c-.1,0-.19-.03-.27-.1l-3.58-3.16c-.17-.15-.18-.41-.04-.57.15-.17.41-.18.57-.04l3.15,2.78,1.49-3.59c.08-.21.33-.31.53-.22.21.09.31.32.22.53l-1.7,4.11c-.05.12-.16.21-.28.24-.03,0-.06.01-.09.01Z"/>
  <path class="cls-7" d="M317.6,455.43c-.13,0-.27-.07-.34-.19-.12-.19-.06-.44.13-.56l12.41-7.84c.19-.12.44-.06.56.13.12.19.06.44-.13.56l-12.41,7.84c-.07.04-.14.06-.22.06Z"/>
  <path class="cls-7" d="M403.38,420.71c10.96-28.55,11.61-49.9,3.87-71.08-7.74-21.19,9.29-46.35,11.71-45.85,2.42.5,5.03,3.3,4.66,5.25-.37,1.95-9.62,7.74-10.1,26.85-.49,19.11,8.62,28,6.38,51.03-2.24,23.03-11.04,38.19-11.04,38.19l-5.48-4.38Z"/>
  <path class="cls-7" d="M389.6,418.12c-6.03.75-10.61,1.25-14.16,1.58-3.55-.33-8.13-.82-14.16-1.58-25.92-3.24-25.11,10.8-18.76,15.75,6.34,4.96,21.33,1.04,32.92,1.04s26.58,3.91,32.92-1.04c6.34-4.96,7.16-19-18.76-15.75Z"/>
  <path class="cls-12" d="M327.03,284.43c-4.83,6.27-8.58,13.15-.75,16.47,7.83,3.32.7,12.29,4.05,19.05,3.34,6.76,15.27,6.32,18.49-.59,3.23-6.91-21.79-34.94-21.79-34.94Z"/>
  <path class="cls-11" d="M325.81,290.42c.93,7.66,9.58,23.27,12.05,24.78,2.54,1.55,7.22-2.53,7.22-2.53l5.66,11.75,9.68-6.48-14.45-33.08s-21.06-1.95-20.15,5.56Z"/>
  <path class="cls-12" d="M345.78,314.1l-.7-1.45c2.67-1.92,5.23-4.19,5.23-4.19,0,0-1.62,2.58-4.54,5.64Z"/>
  <path class="cls-7" d="M365.22,391.26s-6.47-22.22-9.06-26.83c-2.59-4.61-12.74-4.42-13.41-12.84-.67-8.43,5.42-29.21,5.42-29.21,0,0-4.97-7.76-3.78-9.07,0,0,11.27-10.41,13.28-9.53,2.01.88,5.32,8.88,5.32,8.88,0,0,16.87,13.77,24.23,31.85,7.37,18.07,12.24,42.7,12.24,42.7l-34.25,4.06Z"/>
  <path class="cls-7" d="M399.54,397.95h-47.4c-2.99,0-5.42-2.42-5.42-5.42h0c0-2.99,2.42-5.42,5.42-5.42h47.4c2.99,0,5.42,2.42,5.42,5.42h0c0,2.99-2.42,5.42-5.42,5.42Z"/>
  <path class="cls-7" d="M393.02,423.31h-6.52l-.46-.86c-.35-.65-8.54-16.05-10.45-27.8l3.21-.52c1.57,9.69,7.91,22.53,9.66,25.93h1.9l5.17-25.72,3.19.64-5.7,28.33Z"/>
  <path class="cls-12" d="M396.38,387.72h-29.78c-.22,0-.41-.18-.41-.41s.18-.41.41-.41h29.78c.22,0,.41.18.41.41s-.18.41-.41.41Z"/>
  <path class="cls-11" d="M335.17,360.24l15.71-37.87c1.34-3.24,4.99-4.86,8.3-3.7h0c3.49,1.23,5.3,5.07,3.99,8.54-3.54,9.37-10.26,26.78-14.34,34.96-5.73,11.52-11.52,12.09-17.62,10.12-6.1-1.97-37.39-22.15-37.39-22.15l-9.52-14.13s10.55.69,12.29,1.54c1.74.84,6.28,11.93,6.28,11.93l32.3,10.76Z"/>
  <rect class="cls-7" x="215.43" y="371.5" width="128.27" height="8.19"/>
  <rect class="cls-7" x="263.53" y="501.49" width="32.07" height="2.05"/>
  <path class="cls-12" d="M372.06,306.41c.09-.24.17-.49.24-.74,1.11-3.93-.05-8.38-2.8-11.38-3.2-3.48-8.03-4.86-11.8-7.56-2.89-2.08-5.34-4.8-8.51-6.43-5.45-2.81-12.21-1.86-17.68.91-1.65.84-3.24,1.84-4.48,3.21-2.03,2.23-3.14,5.86-.73,8.25.86.85,1.98,1.4,3.11,1.85,4.17,1.64,8.69,2.04,12.97,3.31,1.65.49,3.85,1.02,5.28,1.95,1.66,1.08,2.52,3.46,3.11,5.25.75,2.29,1.36,4.74,2.98,6.52,1.4,1.54,3.43,2.41,5.5,2.7,5.43.74,10.95-2.73,12.8-7.84Z"/>
  <rect class="cls-10" y="56.13" width="623.63" height="623.63"/>
  <image width="512" height="512" transform="translate(292.77 192.24) scale(.11)" xlink:href="../OneDrive/Bureau/Projet_Indiv/source/logo.png"/>
  <text class="cls-21" transform="translate(272.4 15.4)"><tspan x="0" y="0">Cybe</tspan><tspan class="cls-51" x="47.74" y="0">r</tspan><tspan class="cls-40" x="55.37" y="0">P</tspan><tspan class="cls-32" x="68.36" y="0">r</tspan><tspan class="cls-49" x="75.96" y="0">o</tspan><tspan class="cls-43" x="87.75" y="0">t</tspan><tspan x="95.27" y="0">e</tspan><tspan class="cls-61" x="106.63" y="0">c</tspan><tspan class="cls-49" x="117.41" y="0">t</tspan></text>
  <path class="cls-19" d="M516.75,131.2c0,.35-.28.63-.63.63s-.63-.28-.63-.63.28-.63.63-.63.63.28.63.63"/>
  <rect class="cls-13" x="190.45" y="101.51" width="15.32" height="57.41"/>
  <text class="cls-22" transform="translate(142.89 121.18)"><tspan x="0" y="0">LE </tspan><tspan class="cls-46" x="37.39" y="0">D</tspan><tspan x="56.98" y="0">ANGER E</tspan><tspan class="cls-46" x="169.89" y="0">S</tspan><tspan x="184.97" y="0">T I</tspan><tspan class="cls-62" x="214.46" y="0">N</tspan><tspan class="cls-60" x="233.76" y="0">V</tspan><tspan x="251.3" y="0">ISIBL</tspan><tspan class="cls-27" x="315.21" y="0">E</tspan><tspan x="331.55" y="0">,</tspan><tspan x="-90.31" y="31">MAIS LES MEN</tspan><tspan class="cls-46" x="92.09" y="31">A</tspan><tspan class="cls-34" x="110.23" y="31">CES SONT BIEN RÉELLE</tspan><tspan class="cls-59" x="406.07" y="31">S</tspan><tspan x="421.87" y="31">.</tspan></text>
  <g>
    <path class="cls-18" d="M498.74,98.51c-.03.15.1.1.16.12,1.65.48,3.31.95,4.97,1.43,2.12.61,4.25,1.21,6.37,1.81.16.04.21.1.21.27,0,2.22.03,4.45-.02,6.67-.05,2.02-.47,3.99-1.18,5.88-.8,2.13-1.92,4.06-3.4,5.79-1.94,2.27-4.28,4-7.02,5.2-.12.05-.12.05-.18.15h-.21c0-1.17,0-2.34,0-3.51.06-.02.12-.04.17-.07,1.35-.73,2.6-1.61,3.71-2.68,1.7-1.64,2.99-3.56,3.84-5.77.68-1.75,1.07-3.57,1.09-5.45.01-1.25,0-2.49.01-3.74,0-.22-.08-.3-.28-.36-1.86-.52-3.72-1.06-5.58-1.59-.96-.27-1.93-.54-2.9-.81-.02-.02-.04-.03-.06-.04,0-1.1,0-2.21,0-3.31h.32Z"/>
    <path class="cls-6" d="M498.41,122.33c0,1.17,0,2.34,0,3.51h-.21c.06-.13-.07-.11-.11-.13-1.23-.54-2.4-1.19-3.5-1.97-1.64-1.15-3.07-2.54-4.28-4.14-1.36-1.79-2.37-3.77-3.04-5.92-.38-1.23-.63-2.49-.77-3.78-.17-1.65-.08-3.31-.1-4.96-.01-.93,0-1.87,0-2.8,0-.17.05-.24.22-.28,3.76-1.06,7.51-2.14,11.27-3.21.09-.03.25.03.27-.15h.27c0,1.1,0,2.21,0,3.31-.07.03-.15.06-.22.08-2.77.79-5.55,1.59-8.32,2.37-.19.05-.28.13-.27.34.02.51,0,1.01,0,1.52,0,1.48-.04,2.97.21,4.44.35,2.04,1.04,3.95,2.1,5.72,1.06,1.76,2.41,3.26,4.04,4.5.77.59,1.58,1.12,2.46,1.53h0Z"/>
    <path class="cls-5" d="M498.48,101.86c.97.27,1.93.54,2.9.81,1.86.53,3.72,1.07,5.58,1.59.2.06.28.14.28.36-.01,1.25,0,2.49-.01,3.74-.02,1.88-.41,3.7-1.09,5.45-.86,2.21-2.14,4.13-3.84,5.77-1.11,1.07-2.36,1.95-3.71,2.68-.05.03-.11.05-.17.07h0c0-6.74,0-13.46,0-20.19,0-.1-.02-.2.06-.28Z"/>
    <path class="cls-4" d="M498.48,101.86c-.08.08-.06.18-.06.28,0,6.72,0,13.45,0,20.17-.88-.42-1.69-.95-2.46-1.53-1.63-1.24-2.98-2.74-4.04-4.5-1.07-1.77-1.76-3.68-2.1-5.72-.25-1.47-.2-2.96-.21-4.44,0-.51.01-1.01,0-1.52,0-.21.07-.28.27-.34,2.78-.78,5.55-1.58,8.32-2.37.08-.02.15-.05.22-.08.02.01.04.03.06.04Z"/>
  </g>
  <g>
    <path class="cls-18" d="M125.8,98.51c-.03.15.1.1.16.12,1.65.48,3.31.95,4.97,1.43,2.12.61,4.25,1.21,6.37,1.81.16.04.21.1.21.27,0,2.22.03,4.45-.02,6.67-.05,2.02-.47,3.99-1.18,5.88-.8,2.13-1.92,4.06-3.4,5.79-1.94,2.27-4.28,4-7.02,5.2-.12.05-.12.05-.18.15h-.21c0-1.17,0-2.34,0-3.51.06-.02.12-.04.17-.07,1.35-.73,2.6-1.61,3.71-2.68,1.7-1.64,2.99-3.56,3.84-5.77.68-1.75,1.07-3.57,1.09-5.45.01-1.25,0-2.49.01-3.74,0-.22-.08-.3-.28-.36-1.86-.52-3.72-1.06-5.58-1.59-.96-.27-1.93-.54-2.9-.81-.02-.02-.04-.03-.06-.04,0-1.1,0-2.21,0-3.31h.32Z"/>
    <path class="cls-6" d="M125.47,122.33c0,1.17,0,2.34,0,3.51h-.21c.06-.13-.07-.11-.11-.13-1.23-.54-2.4-1.19-3.5-1.97-1.64-1.15-3.07-2.54-4.28-4.14-1.36-1.79-2.37-3.77-3.04-5.92-.38-1.23-.63-2.49-.77-3.78-.17-1.65-.08-3.31-.1-4.96-.01-.93,0-1.87,0-2.8,0-.17.05-.24.22-.28,3.76-1.06,7.51-2.14,11.27-3.21.09-.03.25.03.27-.15h.27c0,1.1,0,2.21,0,3.31-.07.03-.15.06-.22.08-2.77.79-5.55,1.59-8.32,2.37-.19.05-.28.13-.27.34.02.51,0,1.01,0,1.52,0,1.48-.04,2.97.21,4.44.35,2.04,1.04,3.95,2.1,5.72,1.06,1.76,2.41,3.26,4.04,4.5.77.59,1.58,1.12,2.46,1.53h0Z"/>
    <path class="cls-5" d="M125.54,101.86c.97.27,1.93.54,2.9.81,1.86.53,3.72,1.07,5.58,1.59.2.06.28.14.28.36-.01,1.25,0,2.49-.01,3.74-.02,1.88-.41,3.7-1.09,5.45-.86,2.21-2.14,4.13-3.84,5.77-1.11,1.07-2.36,1.95-3.71,2.68-.05.03-.11.05-.17.07h0c0-6.74,0-13.46,0-20.19,0-.1-.02-.2.06-.28Z"/>
    <path class="cls-4" d="M125.54,101.86c-.08.08-.06.18-.06.28,0,6.72,0,13.45,0,20.17-.88-.42-1.69-.95-2.46-1.53-1.63-1.24-2.98-2.74-4.04-4.5-1.07-1.77-1.76-3.68-2.1-5.72-.25-1.47-.2-2.96-.21-4.44,0-.51.01-1.01,0-1.52,0-.21.07-.28.27-.34,2.78-.78,5.55-1.58,8.32-2.37.08-.02.15-.05.22-.08.02.01.04.03.06.04Z"/>
  </g>
  <text class="cls-20" transform="translate(201.55 602.13)"><tspan class="cls-39" x="0" y="0">L</tspan><tspan x="10.8" y="0">e phishi</tspan><tspan class="cls-50" x="84.94" y="0">n</tspan><tspan x="97.45" y="0">g </tspan><tspan class="cls-36" x="115.14" y="0">f</tspan><tspan class="cls-56" x="122.18" y="0">r</tspan><tspan x="129.24" y="0">appe </tspan><tspan class="cls-31" x="181.64" y="0">f</tspan><tspan x="188.48" y="0">o</tspan><tspan class="cls-47" x="200.27" y="0">r</tspan><tspan class="cls-41" x="208.29" y="0">t</tspan><tspan class="cls-55" x="216.3" y="0">,</tspan><tspan class="cls-36" x="-24.06" y="21.6">n</tspan><tspan class="cls-53" x="-11.55" y="21.6">e </tspan><tspan class="cls-36" x="4.9" y="21.6">m</tspan><tspan x="23.86" y="21.6">o</tspan><tspan class="cls-28" x="35.65" y="21.6">r</tspan><tspan class="cls-55" x="43.24" y="21.6">d</tspan><tspan class="cls-42" x="55.7" y="21.6">e</tspan><tspan x="66.97" y="21.6">z </tspan><tspan class="cls-28" x="81.84" y="21.6">p</tspan><tspan x="94.09" y="21.6">as à l’ha</tspan><tspan class="cls-36" x="169.73" y="21.6">m</tspan><tspan class="cls-53" x="188.68" y="21.6">e</tspan><tspan class="cls-48" x="200.04" y="21.6">ç</tspan><tspan x="210.55" y="21.6">on !</tspan></text>
</svg>