<?xml version="1.0" encoding="UTF-8"?>
<svg id="Calque_2" data-name="Calque 2" xmlns="http://www.w3.org/2000/svg" viewBox="0 0 623.63 623.63">
  <defs>
    <style>
      .cls-1 {
        letter-spacing: .05em;
      }

      .cls-2 {
        letter-spacing: -.02em;
      }

      .cls-3 {
        fill: #c94141;
      }

      .cls-3, .cls-4, .cls-5, .cls-6, .cls-7, .cls-8, .cls-9, .cls-10, .cls-11, .cls-12, .cls-13, .cls-14, .cls-15, .cls-16, .cls-17, .cls-18, .cls-19, .cls-20, .cls-21 {
        stroke-width: 0px;
      }

      .cls-4, .cls-22 {
        fill: #000;
      }

      .cls-5 {
        fill: #eaeaea;
      }

      .cls-6 {
        fill: #4d5a64;
      }

      .cls-23 {
        letter-spacing: -.05em;
      }

      .cls-24 {
        letter-spacing: -.02em;
      }

      .cls-7 {
        fill: #ca515b;
      }

      .cls-25 {
        opacity: .5;
      }

      .cls-26 {
        letter-spacing: -.01em;
      }

      .cls-27 {
        letter-spacing: 0em;
      }

      .cls-8 {
        fill: #2e353a;
      }

      .cls-28 {
        letter-spacing: 0em;
      }

      .cls-9 {
        fill: #e4e5e5;
      }

      .cls-29 {
        letter-spacing: .04em;
      }

      .cls-30 {
        letter-spacing: -.02em;
      }

      .cls-31 {
        letter-spacing: .06em;
      }

      .cls-32 {
        letter-spacing: 0em;
      }

      .cls-33 {
        letter-spacing: .04em;
      }

      .cls-34 {
        letter-spacing: -.01em;
      }

      .cls-10 {
        fill: #996552;
      }

      .cls-35 {
        letter-spacing: .04em;
      }

      .cls-36 {
        letter-spacing: .05em;
      }

      .cls-11 {
        fill: #dfdfdf;
      }

      .cls-37 {
        letter-spacing: .1em;
      }

      .cls-12 {
        fill: #f79292;
        opacity: .25;
      }

      .cls-38 {
        opacity: .8;
      }

      .cls-13 {
        fill: #f95555;
      }

      .cls-39 {
        letter-spacing: 0em;
      }

      .cls-40 {
        letter-spacing: .05em;
      }

      .cls-41 {
        opacity: .4;
      }

      .cls-42 {
        letter-spacing: .05em;
      }

      .cls-43 {
        letter-spacing: 0em;
      }

      .cls-44 {
        opacity: .3;
      }

      .cls-14 {
        fill: #ddbd00;
      }

      .cls-45 {
        letter-spacing: -.02em;
      }

      .cls-46 {
        letter-spacing: 0em;
      }

      .cls-15 {
        fill: #e26060;
      }

      .cls-47 {
        letter-spacing: .04em;
      }

      .cls-48 {
        letter-spacing: -.03em;
      }

      .cls-49 {
        font-size: 18px;
      }

      .cls-49, .cls-22, .cls-50 {
        font-family: Montserrat-Bold, Montserrat;
        font-weight: 700;
      }

      .cls-49, .cls-50 {
        fill: #3f0000;
      }

      .cls-51 {
        letter-spacing: 0em;
      }

      .cls-52 {
        letter-spacing: .03em;
      }

      .cls-53 {
        letter-spacing: 0em;
      }

      .cls-54 {
        letter-spacing: 0em;
      }

      .cls-55 {
        letter-spacing: .04em;
      }

      .cls-16 {
        fill: #2f2f2f;
      }

      .cls-17 {
        fill: #d1d1d6;
      }

      .cls-56 {
        letter-spacing: .03em;
      }

      .cls-18 {
        fill: #fff;
      }

      .cls-19 {
        fill: #aa8776;
      }

      .cls-20 {
        fill: #fafafa;
      }

      .cls-57 {
        letter-spacing: 0em;
      }

      .cls-58 {
        letter-spacing: -.01em;
      }

      .cls-22 {
        font-size: 10px;
      }

      .cls-59 {
        letter-spacing: 0em;
      }

      .cls-60 {
        letter-spacing: -.01em;
      }

      .cls-50 {
        font-size: 24px;
      }

      .cls-61 {
        letter-spacing: 0em;
      }

      .cls-62 {
        letter-spacing: .06em;
      }

      .cls-21 {
        fill: #fff8f8;
      }

      .cls-63 {
        letter-spacing: 0em;
      }
    </style>
  </defs>
  <g id="ppost">
    <g>
      <rect class="cls-21" width="623.63" height="623.63"/>
      <circle class="cls-12" cx="353.19" cy="314.15" r="146.37"/>
      <text class="cls-50" transform="translate(25.19 66.6)"><tspan class="cls-28" x="0" y="0">L</tspan><tspan x="14.59" y="0">A </tspan><tspan class="cls-54" x="39.77" y="0">CY</tspan><tspan class="cls-57" x="73.25" y="0">BERSÉ</tspan><tspan class="cls-61" x="156.77" y="0">C</tspan><tspan x="174.26" y="0">URITÉ N’E</tspan><tspan class="cls-60" x="298.2" y="0">S</tspan><tspan x="313.27" y="0">T </tspan><tspan class="cls-23" x="334.89" y="0">P</tspan><tspan x="351.38" y="0">AS UNE O</tspan><tspan class="cls-48" x="473.32" y="0">P</tspan><tspan class="cls-59" x="490.19" y="0">TION,</tspan><tspan class="cls-63" x="134.18" y="31">C</tspan><tspan class="cls-57" x="152.01" y="31">’E</tspan><tspan class="cls-43" x="174.41" y="31">S</tspan><tspan x="189.48" y="31">T UNE NÉCESSITÉ !</tspan></text>
      <text class="cls-49" transform="translate(245.78 546.69)"><tspan class="cls-32" x="0" y="0">P</tspan><tspan class="cls-53" x="13" y="0">r</tspan><tspan x="20.59" y="0">o</tspan><tspan class="cls-30" x="32.38" y="0">t</tspan><tspan class="cls-51" x="39.91" y="0">ég</tspan><tspan class="cls-39" x="63.86" y="0">e</tspan><tspan class="cls-58" x="75.13" y="0">z</tspan><tspan class="cls-24" x="84.69" y="0">-</tspan><tspan class="cls-34" x="91.35" y="0">v</tspan><tspan x="101.84" y="0">ous,</tspan><tspan class="cls-32" x="-60.28" y="21.6">a</tspan><tspan class="cls-45" x="-49.35" y="21.6">v</tspan><tspan x="-38.92" y="21.6">ant qu’il </tspan><tspan class="cls-46" x="42.98" y="21.6">n</tspan><tspan x="55.49" y="21.6">e soit t</tspan><tspan class="cls-27" x="119.46" y="21.6">r</tspan><tspan x="127.06" y="21.6">op ta</tspan><tspan class="cls-53" x="175.3" y="21.6">r</tspan><tspan x="182.9" y="21.6">d!</tspan></text>
      <circle class="cls-16" cx="60.29" cy="606.6" r="8.87" transform="translate(-411.27 220.3) rotate(-45)"/>
      <circle class="cls-16" cx="82.44" cy="606.6" r="8.87" transform="translate(-225.86 77.72) rotate(-22.5)"/>
      <path class="cls-18" d="M60.3,602.29c1.4,0,1.57,0,2.12.03.51.02.79.11.98.18.25.1.42.21.6.39.18.18.3.36.39.6.07.19.16.46.18.98.03.55.03.72.03,2.12s0,1.57-.03,2.12c-.02.51-.11.79-.18.98-.1.25-.21.42-.39.6-.18.18-.36.3-.6.39-.19.07-.46.16-.98.18-.55.03-.72.03-2.12.03s-1.57,0-2.12-.03c-.51-.02-.79-.11-.98-.18-.25-.1-.42-.21-.6-.39-.18-.18-.3-.36-.39-.6-.07-.19-.16-.46-.18-.98-.03-.55-.03-.72-.03-2.12s0-1.57.03-2.12c.02-.51.11-.79.18-.98.1-.25.21-.42.39-.6.18-.18.36-.3.6-.39.19-.07.46-.16.98-.18.55-.03.72-.03,2.12-.03M60.3,601.34c-1.43,0-1.61,0-2.17.03-.56.03-.94.11-1.28.24-.35.13-.64.31-.93.61-.29.29-.47.59-.61.93-.13.33-.22.72-.24,1.28-.03.56-.03.74-.03,2.17s0,1.61.03,2.17c.03.56.11.94.24,1.28.13.35.31.64.61.93.29.29.59.47.93.61.33.13.72.22,1.28.24.56.03.74.03,2.17.03s1.61,0,2.17-.03c.56-.03.94-.11,1.28-.24.35-.13.64-.31.93-.61.29-.29.47-.59.61-.93.13-.33.22-.72.24-1.28.03-.56.03-.74.03-2.17s0-1.61-.03-2.17c-.03-.56-.11-.94-.24-1.28-.13-.35-.31-.64-.61-.93-.29-.29-.59-.47-.93-.61-.33-.13-.72-.22-1.28-.24-.56-.03-.74-.03-2.17-.03"/>
      <path class="cls-18" d="M60.3,603.5c-1.49,0-2.7,1.21-2.7,2.7s1.21,2.7,2.7,2.7,2.7-1.21,2.7-2.7-1.21-2.7-2.7-2.7M60.3,607.95c-.97,0-1.75-.78-1.75-1.75s.78-1.75,1.75-1.75,1.75.78,1.75,1.75-.78,1.75-1.75,1.75"/>
      <path class="cls-18" d="M83.22,611.67v-4.62h1.55l.23-1.8h-1.78v-1.15c0-.52.14-.88.89-.88h.95v-1.61c-.16-.02-.73-.07-1.39-.07-1.38,0-2.32.84-2.32,2.38v1.33h-1.56v1.8h1.56v4.62h1.86Z"/>
      <text class="cls-22" transform="translate(415.5 610.81)"><tspan class="cls-1" x="0" y="0">h</tspan><tspan class="cls-33" x="7.41" y="0">t</tspan><tspan class="cls-36" x="12.14" y="0">tps</tspan><tspan class="cls-37" x="30.2" y="0">:</tspan><tspan class="cls-2" x="33.85" y="0">/</tspan><tspan class="cls-26" x="37.54" y="0">/</tspan><tspan class="cls-29" x="41.32" y="0">c</tspan><tspan class="cls-36" x="47.65" y="0">ybe</tspan><tspan class="cls-42" x="68.34" y="0">r</tspan><tspan class="cls-1" x="73.11" y="0">p</tspan><tspan class="cls-55" x="80.51" y="0">r</tspan><tspan class="cls-1" x="85.23" y="0">o</tspan><tspan class="cls-52" x="92.28" y="0">t</tspan><tspan class="cls-36" x="96.96" y="0">e</tspan><tspan class="cls-62" x="103.77" y="0">c</tspan><tspan class="cls-31" x="110.26" y="0">t</tspan><tspan class="cls-47" x="115.21" y="0">.</tspan><tspan class="cls-35" x="118.26" y="0">e</tspan><tspan class="cls-56" x="124.97" y="0">v</tspan><tspan class="cls-1" x="131.27" y="0">an</tspan><tspan class="cls-40" x="145.35" y="0">m</tspan><tspan class="cls-1" x="156.38" y="0">oulin.</tspan><tspan class="cls-40" x="188.35" y="0">f</tspan><tspan class="cls-1" x="192.76" y="0">r</tspan></text>
      <path class="cls-8" d="M550.32,469.03c0,.1-106.79.18-238.5.18s-238.52-.08-238.52-.18,106.77-.18,238.52-.18,238.5.08,238.5.18Z"/>
      <g>
        <g>
          <g>
            <g>
              <g>
                <path class="cls-6" d="M465.2,200.82H161.62c-5.23,0-9.48,4.24-9.48,9.48v214.43c0,5.23,4.24,9.48,9.48,9.48h116.52s7.41,22.92-15.56,34.78h108.95s-25.94-8.89-19.27-34.78h112.96c5.23,0,9.48-4.24,9.48-9.48v-214.43c0-5.23-4.24-9.48-9.48-9.48Z"/>
                <path class="cls-8" d="M317.46,411.65c4.13,5.9-2.33,12.37-8.24,8.24-.19-.14-.37-.31-.51-.51-4.12-5.9,2.34-12.36,8.24-8.24.19.14.37.31.51.51Z"/>
              </g>
              <path class="cls-18" d="M167.07,204.75h292.69c5.35,0,9.7,4.35,9.7,9.7v180.53H157.37v-180.53c0-5.35,4.35-9.7,9.7-9.7Z"/>
            </g>
            <path class="cls-5" d="M166.52,204.75h295.42c4.15,0,7.52,3.37,7.52,7.52v8.29H157.37v-6.65c0-5.05,4.1-9.15,9.15-9.15Z"/>
            <g>
              <circle class="cls-11" cx="167.31" cy="212.99" r="2.19"/>
              <circle class="cls-11" cx="173.84" cy="212.99" r="2.19"/>
              <circle class="cls-11" cx="180.06" cy="212.99" r="2.19"/>
            </g>
          </g>
          <path class="cls-8" d="M410.93,434.24c0,.1-43.2.18-96.48.18s-96.49-.08-96.49-.18,43.19-.18,96.49-.18,96.48.08,96.48.18Z"/>
        </g>
        <g>
          <g>
            <path class="cls-7" d="M361.61,247.33l-47.59-17.53-47.12,17.29c-6.02,2.91-11.29,4.66-11.29,10.41v28.62c0,19.88,5.08,39.57,15.52,56.96,8.79,14.63,22.4,29.7,43.35,39.27,19.26-6.42,33.64-23.53,42.43-38.16,10.45-17.39,15.52-37.08,15.52-56.96v-25.74c0-8.2-4.23-12.2-10.83-14.17Z"/>
            <g class="cls-38">
              <path class="cls-18" d="M361.61,247.33l-47.59-17.53-47.12,17.29c-6.02,2.91-11.29,4.66-11.29,10.41v28.62c0,19.88,5.08,39.57,15.52,56.96,8.79,14.63,22.4,29.7,43.35,39.27,19.26-6.42,33.64-23.53,42.43-38.16,10.45-17.39,15.52-37.08,15.52-56.96v-25.74c0-8.2-4.23-12.2-10.83-14.17Z"/>
            </g>
          </g>
          <g>
            <g>
              <path class="cls-7" d="M343.09,319.78h-8.74v-47.59c0-11.2-9.11-20.32-20.32-20.32s-20.32,9.11-20.32,20.32v47.59h-8.74v-47.59c0-16.02,13.04-29.06,29.06-29.06s29.06,13.04,29.06,29.06v47.59Z"/>
              <g class="cls-41">
                <path class="cls-4" d="M343.09,319.78h-8.74v-47.59c0-11.2-9.11-20.32-20.32-20.32s-20.32,9.11-20.32,20.32v47.59h-8.74v-47.59c0-16.02,13.04-29.06,29.06-29.06s29.06,13.04,29.06,29.06v47.59Z"/>
              </g>
              <rect class="cls-7" x="274.87" y="298.61" width="78.32" height="50.25" rx="5.81" ry="5.81"/>
              <g class="cls-25">
                <path class="cls-4" d="M320.58,317.19c0-3.62-2.93-6.55-6.55-6.55s-6.55,2.93-6.55,6.55c0,2.99,2.02,5.49,4.76,6.27v9.79h3.57v-9.79c2.74-.78,4.76-3.28,4.76-6.27Z"/>
              </g>
            </g>
            <path class="cls-20" d="M279.04,344.09c-.18,0-.33-8.38-.33-18.71s.15-18.72.33-18.72.33,8.38.33,18.72-.15,18.71-.33,18.71Z"/>
            <path class="cls-20" d="M308.9,325.58s-.31-.1-.77-.44c-.46-.33-1.08-.9-1.69-1.72-1.22-1.6-2.34-4.51-1.61-7.65.76-3.13,3.06-5.23,4.87-6.12.92-.46,1.72-.69,2.28-.78.56-.09.88-.08.88-.04.03.12-1.24.24-2.94,1.23-1.67.94-3.76,2.97-4.46,5.86-.67,2.9.29,5.65,1.36,7.24,1.07,1.64,2.16,2.32,2.08,2.42Z"/>
          </g>
          <path class="cls-7" d="M372.86,371.25s.19-.26.57-.76c.1-.13.2-.26.32-.42.11-.16.2-.35.32-.55.23-.4.51-.86.72-1.44.11-.28.25-.58.36-.9.09-.33.19-.67.29-1.04.12-.36.18-.75.24-1.16.05-.41.16-.83.18-1.27.19-1.78.07-3.85-.28-6.14-.71-4.59-2.66-10-5.64-15.87-2.97-5.89-7.07-12.22-12.1-18.82-5.04-6.6-11.09-13.42-18.05-20.27-6.97-6.84-14.85-13.71-23.69-20.22-4.42-3.25-9.09-6.4-14.01-9.37-4.91-2.98-10.09-5.75-15.56-8.16-5.46-2.38-11.23-4.45-17.31-5.43-3.03-.47-6.16-.69-9.23-.23-1.53.24-3.04.65-4.46,1.29-1.4.68-2.68,1.59-3.74,2.74-1.02,1.19-1.78,2.56-2.3,4.03-.47,1.48-.72,3.03-.78,4.58-.12,3.11.46,6.19,1.27,9.15,1.67,5.93,4.38,11.43,7.36,16.59,3.01,5.16,6.36,9.99,9.88,14.53,3.51,4.55,7.18,8.83,10.91,12.85,7.48,8.04,15.2,15.1,22.79,21.24,7.6,6.14,15.06,11.37,22.2,15.62,7.13,4.25,13.89,7.6,20.08,9.88,6.18,2.29,11.77,3.61,16.41,3.79,2.31.09,4.39-.03,6.13-.42.44-.06.85-.22,1.24-.32.4-.11.78-.21,1.12-.37.35-.14.68-.27,1-.4.31-.15.58-.32.85-.46.55-.27.97-.6,1.35-.88.19-.14.36-.26.51-.38.14-.13.27-.26.38-.36.45-.43.69-.65.69-.65,0,0-.22.23-.67.68-.11.11-.24.24-.38.37-.15.13-.32.25-.51.39-.37.28-.79.62-1.34.9-.27.15-.55.32-.85.47-.32.13-.65.27-1,.41-.34.16-.73.27-1.12.38-.4.1-.81.26-1.25.33-1.75.41-3.83.54-6.16.46-4.66-.16-10.28-1.46-16.47-3.74-6.21-2.27-12.99-5.61-20.14-9.85-7.15-4.24-14.64-9.48-22.25-15.61-7.61-6.14-15.35-13.2-22.85-21.25-3.74-4.03-7.42-8.31-10.94-12.87-3.53-4.55-6.89-9.39-9.91-14.57-2.99-5.18-5.72-10.69-7.4-16.67-.81-2.98-1.4-6.1-1.29-9.26.06-1.58.31-3.16.8-4.68.53-1.51,1.32-2.93,2.37-4.15,1.1-1.19,2.42-2.12,3.86-2.82,1.46-.66,3-1.08,4.56-1.32,3.13-.47,6.29-.24,9.34.23,6.13.99,11.92,3.07,17.4,5.46,5.48,2.42,10.67,5.2,15.59,8.19,4.93,2.98,9.6,6.14,14.03,9.4,8.85,6.53,16.74,13.42,23.71,20.28,6.96,6.87,13.01,13.71,18.04,20.33,5.03,6.62,9.12,12.98,12.08,18.89,2.97,5.9,4.9,11.33,5.59,15.94.35,2.3.45,4.38.25,6.17-.02.45-.13.87-.19,1.28-.06.41-.13.8-.25,1.16-.1.36-.2.71-.3,1.04-.12.32-.25.62-.37.9-.21.58-.5,1.04-.74,1.44-.12.2-.22.39-.33.55-.12.15-.23.29-.33.42-.39.49-.6.74-.6.74Z"/>
          <path class="cls-7" d="M395.25,317.19s-.03-.32-.08-.94c-.01-.16-.03-.33-.04-.52-.03-.19-.08-.4-.13-.63-.1-.45-.19-.98-.42-1.55-.11-.29-.2-.6-.33-.91-.15-.31-.31-.63-.48-.96-.15-.35-.37-.68-.59-1.02-.23-.34-.43-.73-.72-1.07-1.04-1.45-2.51-2.92-4.29-4.39-3.58-2.95-8.64-5.69-14.77-8.09-6.14-2.41-13.41-4.41-21.56-5.99-8.15-1.58-17.21-2.64-26.96-3.11-9.75-.47-20.21-.35-31.15.68-5.46.52-11.04,1.27-16.69,2.33-5.65,1.05-11.36,2.43-17.04,4.27-5.66,1.86-11.34,4.16-16.53,7.47-2.57,1.67-5.06,3.58-7.04,5.98-.99,1.2-1.83,2.51-2.47,3.93-.59,1.44-.94,2.97-.97,4.53.03,1.56.38,3.1.96,4.54.64,1.42,1.48,2.74,2.47,3.94,1.98,2.4,4.47,4.31,7.04,5.98,5.19,3.32,10.87,5.61,16.53,7.48,5.68,1.84,11.39,3.22,17.04,4.27,5.65,1.06,11.23,1.81,16.7,2.33,10.93,1.02,21.4,1.15,31.15.68,9.75-.48,18.81-1.54,26.96-3.12,8.15-1.58,15.42-3.58,21.56-5.99,6.13-2.4,11.18-5.14,14.77-8.09,1.79-1.47,3.25-2.94,4.29-4.39.29-.34.48-.73.72-1.07.23-.34.44-.68.59-1.02.17-.34.33-.66.48-.96.13-.31.23-.62.33-.91.23-.57.32-1.1.42-1.55.05-.23.1-.43.13-.63.02-.19.03-.37.04-.52.05-.62.08-.94.08-.94,0,0,0,.32-.05.95,0,.16-.02.33-.03.53-.02.19-.08.4-.12.63-.09.46-.18.99-.41,1.56-.1.29-.2.6-.32.92-.15.31-.31.63-.47.97-.15.35-.36.68-.59,1.03-.23.34-.43.73-.71,1.08-1.04,1.47-2.5,2.95-4.29,4.44-3.59,2.98-8.64,5.75-14.78,8.17-6.15,2.44-13.43,4.46-21.59,6.05-8.16,1.6-17.23,2.67-27,3.16-9.77.48-20.24.37-31.19-.65-5.47-.52-11.07-1.26-16.73-2.32-5.66-1.05-11.39-2.43-17.09-4.27-5.68-1.87-11.39-4.17-16.62-7.51-2.59-1.68-5.11-3.61-7.12-6.05-1.01-1.22-1.87-2.57-2.52-4.02-.6-1.48-.97-3.06-.99-4.68.03-1.62.39-3.2,1-4.68.65-1.46,1.52-2.8,2.52-4.02,2.02-2.44,4.53-4.37,7.12-6.05,5.23-3.34,10.94-5.64,16.62-7.51,5.7-1.85,11.43-3.22,17.09-4.27,5.66-1.06,11.25-1.81,16.72-2.32,10.95-1.02,21.43-1.13,31.19-.65,9.77.49,18.83,1.57,27,3.16,8.16,1.59,15.44,3.62,21.59,6.05,6.14,2.42,11.2,5.19,14.79,8.17,1.79,1.49,3.26,2.97,4.29,4.44.29.35.48.74.71,1.08.22.35.44.68.59,1.03.17.34.32.67.47.97.13.32.22.63.32.92.23.57.31,1.11.41,1.56.04.23.1.44.12.63.01.19.02.37.03.53.04.63.05.95.05.95Z"/>
          <path class="cls-7" d="M365.58,249.9s-.27-.17-.8-.51c-.13-.09-.28-.18-.44-.29-.17-.1-.37-.18-.57-.28-.42-.2-.89-.45-1.48-.62-.29-.09-.59-.21-.92-.3-.33-.07-.69-.14-1.05-.21-.37-.09-.76-.13-1.17-.16-.41-.02-.84-.11-1.28-.09-1.79-.07-3.85.19-6.1.7-4.53,1.02-9.79,3.34-15.45,6.72-5.67,3.37-11.71,7.9-17.94,13.37-6.24,5.48-12.63,11.99-18.98,19.4-6.34,7.42-12.66,15.76-18.54,25.03-2.94,4.64-5.76,9.51-8.39,14.62-2.63,5.11-5.04,10.47-7.07,16.08-1.99,5.61-3.66,11.51-4.22,17.64-.26,3.06-.27,6.19.41,9.22.34,1.51.86,2.99,1.6,4.36.78,1.35,1.77,2.57,2.99,3.55,1.25.94,2.68,1.6,4.18,2.02,1.51.37,3.07.51,4.62.46,3.11-.1,6.14-.89,9.04-1.9,5.8-2.07,11.1-5.16,16.04-8.49,4.94-3.36,9.53-7.03,13.82-10.85,4.3-3.82,8.31-7.77,12.07-11.77,7.51-8.01,14.01-16.21,19.62-24.2,5.6-8,10.31-15.81,14.06-23.22,3.75-7.41,6.62-14.38,8.48-20.71,1.86-6.32,2.79-11.99,2.65-16.63-.07-2.31-.33-4.37-.84-6.08-.09-.44-.28-.83-.41-1.22-.13-.39-.27-.76-.45-1.09-.16-.34-.32-.66-.47-.97-.17-.29-.36-.56-.52-.82-.31-.53-.67-.93-.97-1.28-.15-.18-.28-.35-.42-.48-.14-.13-.27-.25-.39-.35-.46-.42-.69-.65-.69-.65,0,0,.25.2.72.62.12.1.25.22.4.35.14.14.27.31.42.48.3.35.68.75.99,1.28.17.26.35.52.53.82.15.31.31.63.48.97.18.33.32.71.46,1.1.13.39.32.79.42,1.22.53,1.72.8,3.79.88,6.11.16,4.66-.75,10.35-2.6,16.69-1.84,6.35-4.7,13.34-8.44,20.77-3.74,7.43-8.45,15.26-14.04,23.28-5.6,8.01-12.11,16.22-19.62,24.26-3.76,4.01-7.78,7.97-12.08,11.8-4.3,3.83-8.9,7.52-13.85,10.89-4.96,3.34-10.27,6.44-16.12,8.53-2.92,1.02-5.98,1.82-9.15,1.92-1.58.05-3.17-.1-4.72-.47-1.54-.43-3.01-1.11-4.31-2.08-1.26-1.01-2.29-2.27-3.08-3.66-.75-1.41-1.29-2.92-1.63-4.46-.69-3.09-.67-6.26-.42-9.34.57-6.18,2.24-12.1,4.25-17.73,2.03-5.63,4.45-11.01,7.09-16.12,2.63-5.12,5.47-10,8.41-14.64,5.91-9.28,12.24-17.62,18.6-25.05,6.37-7.42,12.78-13.92,19.04-19.4,6.26-5.47,12.32-9.99,18.01-13.35,5.68-3.37,10.96-5.67,15.52-6.68,2.27-.5,4.34-.75,6.14-.67.45-.02.88.07,1.29.1.41.04.81.07,1.18.17.37.08.72.15,1.06.22.33.09.63.21.92.31.59.17,1.07.43,1.49.64.21.11.4.19.57.29.16.11.31.21.44.3.52.35.78.54.78.54Z"/>
          <path class="cls-7" d="M231.92,350.72c1.18,1.18,1.18,3.09,0,4.27-1.18,1.18-3.09,1.18-4.27,0-1.18-1.18-1.18-3.09,0-4.27,1.18-1.18,3.09-1.18,4.27,0Z"/>
          <path class="cls-7" d="M402.12,257.24c0,1.67-1.35,3.02-3.02,3.02s-3.02-1.35-3.02-3.02,1.35-3.02,3.02-3.02,3.02,1.35,3.02,3.02Z"/>
          <path class="cls-7" d="M250.97,360.63c0,.42-.34.77-.77.77s-.77-.34-.77-.77.34-.77.77-.77.77.34.77.77Z"/>
          <path class="cls-7" d="M267.33,276.11c0,.42-.34.77-.77.77s-.77-.34-.77-.77.34-.77.77-.77.77.34.77.77Z"/>
          <path class="cls-7" d="M386.96,317.19c0,.42-.34.77-.77.77s-.77-.34-.77-.77.34-.77.77-.77.77.34.77.77Z"/>
          <path class="cls-7" d="M397.62,281.45c0,.42-.34.77-.77.77s-.77-.34-.77-.77.34-.77.77-.77.77.34.77.77Z"/>
        </g>
      </g>
      <g>
        <g>
          <path class="cls-7" d="M520.87,395.91c3.36-2.11,7.21-3.44,11.16-3.84,1.82-.19,3.82-.13,5.28.97.31.23.61.58.54.96-.05.28-.29.49-.52.66-4.54,3.47-11.41,3.9-16.47,1.25"/>
          <path class="cls-7" d="M521.16,395.6c2.53-1.97,5.07-3.96,7.21-6.34s3.88-5.22,4.52-8.36c.19-.95.25-2.04-.36-2.8-5.75,4.49-10.26,10.29-11.37,17.5"/>
          <path class="cls-7" d="M520.93,395.87c.43-3.14.59-6.38-.13-9.47-.72-3.09-2.4-6.05-5.04-7.81-.99,2.32-.57,5,.13,7.42,1.08,3.75,2.78,7.32,5,10.53"/>
          <path class="cls-7" d="M515.3,405.96c3.42.42,6.4,2.22,8.95,4.53,2.55,2.31,4.37,5.43,5.12,8.79-3.35-.21-6.2-2.57-8.27-5.23-2.06-2.65-3.49-5.56-5.76-8.04"/>
          <path class="cls-7" d="M514.07,407.58c2.75-6.79,1.76-14.96-2.55-20.89-1.95,6.93-1.23,14.76,2.55,20.89"/>
          <path class="cls-7" d="M506.63,416.44c3.1-.19,6.26.55,8.96,2.1,2.7,1.55,4.92,3.91,6.31,6.69.19.38.36.86.1,1.2-.22.29-.65.32-1.01.3-3.01-.19-5.68-2.01-7.88-4.07-2.2-2.06-4.12-4.44-6.55-6.23"/>
          <path class="cls-7" d="M506.86,415.96c1.6-5.12,1.7-10.71.28-15.88-.56-2.04-1.5-4.2-3.39-5.16-.16-.08-.35-.15-.52-.09-.16.06-.25.22-.33.38-.67,1.41-.87,3-.8,4.56.07,1.56.39,3.09.71,4.61.6,2.82.91,5.85,2.46,8.28.37.58.69,1.2.98,1.82.29.62.29.84.56,1.33"/>
          <path class="cls-7" d="M487.16,418.9c1.46-5.55-.09-12.29-3.59-16.84-.26-.34-.6-.69-1.02-.66-.64.06-.81.92-.78,1.57.25,5.68,2.15,11.27,5.39,15.93"/>
          <path class="cls-7" d="M485.38,420.11c-6.75,1.76-14.49.05-20.1-4.09,3.33-1.69,7.25-2.17,10.88-1.34,3.63.83,6.96,2.46,9.22,5.42"/>
          <path class="cls-7" d="M483.88,416.41c-3.78-6.16-11.02-10.18-18.24-10.55.83,2.94,3.24,5.22,5.97,6.6,2.72,1.38,5.76,1.98,8.76,2.56,1.17.23,2.76.48,3.52,1.39"/>
          <path class="cls-7" d="M486.78,398.47c-1.02-3.51-2.05-7.04-2.33-10.68-.28-3.64.24-7.44,2.13-10.57,3.53,6.83,3.89,14.81.31,21.62"/>
          <path class="cls-7" d="M474.9,392.46c-4.13-7.5-12.55-13.5-21.07-14.33,3.29,8.19,12.25,14.51,21.07,14.33"/>
          <path class="cls-7" d="M477.5,393.93c-6.16.94-11.4,4.87-17.15,7.25-1.23.51-2.56.92-3.88.74-1.32-.17-2.62-1.06-2.92-2.36-.25-1.08.25-2.22,1.02-3.01.77-.79,1.8-1.28,2.82-1.71,6.27-2.61,12.99-2.67,19.59-1.09"/>
          <path class="cls-7" d="M481.06,398.25c-1.39.4-1.87,1.12-2.97,2.06-3.74,3.19-8.24,5.5-13.01,6.68-.5.12-1.15.17-1.4-.28-.22-.39.06-.87.34-1.22,2-2.5,4.85-4.21,7.85-5.33,3-1.12,5.6-2.47,9.19-2.18"/>
          <path class="cls-7" d="M485.08,372.17c-5.01,4.67-12.06,7.07-18.87,6.42-.31-.03-.65-.08-.86-.31-.47-.52.1-1.31.65-1.75,5.55-4.33,12.27-6.12,19.08-4.37"/>
          <path class="cls-7" d="M480.31,370.43c-6.62-4.96-15.69-6.46-23.55-3.89,2.97,2.92,7.08,4.5,11.22,4.93,4.14.43,8.29-.03,12.33-1.04"/>
          <path class="cls-7" d="M482.21,358.45c.55-5.54.19-9.91.58-15.48.03-.44.13-.98.54-1.14.58-.22,1.06.49,1.25,1.08,1.65,5.13.75,11.01-2.36,15.41"/>
          <path class="cls-7" d="M482.6,359.06c-3.75-2.32-6.57-5.35-9.17-8.92-1.81-2.48-3.34-5.45-2.93-8.49,2.54-.05,4.96,1.35,6.62,3.29,1.66,1.93,2.64,4.35,3.37,6.79.73,2.44,1.25,4.94,2.11,7.34"/>
          <path class="cls-7" d="M473.59,356.55c-8.24-3.05-15.93-7.58-22.58-13.31,2.7-1.09,5.79-.44,8.48.65,6.16,2.49,11.19,6.68,14.22,12.6"/>
          <path class="cls-7" d="M480.07,362.09c-4.17.46-8.4.75-12.54.06-4.06-.68-7.91-2.29-11.7-3.89-.31-.13-.66-.29-.8-.6-.15-.34.01-.75.29-1,.27-.25.64-.37,1-.47,4.13-1.16,8.59-.61,12.65.76,4.06,1.37,7.39,3,11.11,5.15"/>
          <path class="cls-7" d="M503.87,372.36c2.84-5.74,2.66-12.44.2-18.35-1.73,2.63-1.94,5.99-1.62,9.13.32,3.14,1.27,6.36,1.33,9.51"/>
          <path class="cls-7" d="M515.23,366.63c7.1-.14,14.2,2.89,19.02,8.1-3.54.56-7.19-.36-10.42-1.93-3.22-1.57-6.09-3.78-8.93-5.97"/>
          <path class="cls-7" d="M522.87,364.08c3.47-.28,6.82-.71,10.15.31,3.34,1.02,6.38,3.35,7.74,6.56-3.25.37-6.54-.45-9.52-1.8-2.98-1.35-5.69-3.22-8.37-5.08"/>
          <path class="cls-7" d="M511.56,364.2c3.12-2.05,6.33-4.13,9.97-4.98,3.64-.85,7.85-.22,10.39,2.52-2.95,1.73-6.52,1.93-9.93,1.93-3.41,0-7.6-.04-10.82,1.1"/>
          <path class="cls-7" d="M511.54,364.36c5.34-5.25,7.37-14.67,5.22-21.84-4.2,6.38-6.08,14.25-5.22,21.84"/>
          <path class="cls-7" d="M496.85,349.5c-1.01-2.34-1.72-4.8-2.62-7.18-.9-2.38-2.03-4.73-3.74-6.62-1.71-1.89-4.07-3.3-6.62-3.43,1.59,7.22,6.39,13.67,12.84,17.27"/>
          <path class="cls-7" d="M499.51,352.6c1.67-2.29,3.59-5.41,5.85-7.12,2.26-1.71,5.2-2.75,7.96-2.09-2.81,5.02-8.11,8.55-13.82,9.21"/>
          <path class="cls-7" d="M498.98,349.69c1.09-2.78,2.19-5.58,2.64-8.53.44-2.95.17-6.1-1.34-8.68-2.93,5.54-3.88,11.49-1.45,17.27"/>
          <path class="cls-7" d="M496.83,332.48c-1.66-5.49-6.69-9.54-12.12-11.4-.68-.23-1.41-.43-2.13-.32s-1.42.6-1.57,1.31c-.2.93.57,1.77,1.3,2.39,4.23,3.62,9.2,6.36,14.52,8.01"/>
          <path class="cls-7" d="M496.77,327.98c-.21-3.54-.43-7.14-1.58-10.49-1.15-3.36-3.37-6.51-6.6-7.97-.55,3.58,1.03,7.14,2.93,10.22,1.9,3.08,4.2,5.99,5.34,9.42"/>
          <path class="cls-7" d="M496.85,330.42c1.37-4,1.51-9.09,3.91-12.58,1.68-2.44,4.36-4.1,5.8-6.68.96,2.41.67,5.19-.34,7.59-1,2.39-2.66,4.46-4.44,6.35-1.77,1.9-3.29,3.32-4.94,5.33"/>
          <path class="cls-7" d="M496.83,448.35c.11,0,.2-26.71.21-59.66,0-32.96-.07-59.67-.18-59.67s-.2,26.71-.21,59.67c0,32.95.07,59.66.18,59.66Z"/>
          <path class="cls-7" d="M473.48,368.33s.35.16,1,.38c.72.24,1.65.56,2.76.93,2.33.79,5.53,1.94,9.01,3.37,3.44,1.48,6.69,2.67,8.53,4.28.92.79,1.45,1.65,1.71,2.27.27.63.31,1.01.35,1,.01,0,0-.1-.01-.28-.03-.18-.08-.45-.2-.78-.23-.66-.74-1.57-1.67-2.42-.93-.85-2.22-1.61-3.7-2.3-1.48-.69-3.12-1.41-4.87-2.13-3.49-1.43-6.71-2.54-9.07-3.27-1.18-.37-2.14-.64-2.81-.82-.67-.17-1.04-.26-1.05-.23Z"/>
          <path class="cls-7" d="M465.83,349.54s.09.11.28.3c.23.21.51.48.86.81.8.72,1.88,1.71,3.2,2.91,2.76,2.46,6.51,5.8,10.65,9.48,4.16,3.7,7.75,7.24,10.24,9.9,1.25,1.33,2.23,2.43,2.9,3.2.31.36.57.65.77.88.18.2.28.3.29.29.01,0-.07-.13-.23-.34-.16-.21-.4-.53-.72-.93-.64-.8-1.59-1.93-2.81-3.29-2.45-2.72-6.02-6.29-10.18-10-4.17-3.69-7.97-7.01-10.73-9.4-1.35-1.16-2.46-2.11-3.28-2.82-.37-.3-.66-.55-.91-.75-.21-.17-.32-.25-.33-.24Z"/>
          <path class="cls-7" d="M485.31,366.8c.11-.05-.76-2.05-1.63-4.59-.87-2.54-1.28-4.68-1.4-4.66-.1.01.15,2.21,1.03,4.78.44,1.28.92,2.41,1.29,3.21.38.8.65,1.28.7,1.26Z"/>
          <path class="cls-7" d="M496.8,382.97s.25-.25.64-.74c.43-.56.98-1.26,1.64-2.1,1.38-1.78,3.28-4.24,5.42-6.93,2.14-2.69,4.1-5.11,5.52-6.85.67-.83,1.23-1.53,1.68-2.08.39-.49.6-.78.58-.79-.02-.02-.27.23-.69.7-.43.46-1.03,1.15-1.77,2-1.48,1.7-3.48,4.09-5.62,6.79-2.14,2.7-4.01,5.18-5.34,7.01-.66.91-1.19,1.66-1.54,2.18-.36.52-.54.82-.52.83Z"/>
          <path class="cls-7" d="M501.92,376.39c.06.07,1.43-1.55,2.14-4.01.53-1.73.55-3.32.49-4.05h-.17c.08.32.13.49.16.48.03,0,.03-.18,0-.5h-.17c-.06.73-.17,2.27-.68,3.95-.69,2.39-1.88,4.06-1.77,4.12Z"/>
          <path class="cls-7" d="M508.53,368.08c.05.05.49-.5,1.5-.87,1-.39,2.51-.47,4.16-.33,1.65.12,3.13.42,4.19.68,1.06.26,1.7.47,1.72.41.02-.05-.6-.34-1.65-.68-1.05-.33-2.55-.67-4.23-.8-1.67-.14-3.25-.02-4.29.46-1.05.46-1.43,1.11-1.39,1.12Z"/>
          <path class="cls-7" d="M510.09,366.07c.03.06.87-.35,2.29-.84,1.42-.49,3.44-1,5.72-1.18,2.28-.17,4.36.03,5.84.3,1.48.26,2.37.54,2.39.48,0-.03-.21-.12-.61-.26-.4-.15-.99-.32-1.73-.49-1.48-.34-3.59-.59-5.92-.41-2.32.18-4.37.75-5.79,1.31-.71.28-1.27.54-1.64.74-.37.2-.57.32-.56.35Z"/>
          <path class="cls-7" d="M496.85,357.55c.1.03.85-2.58,1.67-5.81.82-3.24,1.4-5.88,1.3-5.91-.1-.03-.85,2.58-1.67,5.81-.82,3.23-1.4,5.88-1.3,5.91Z"/>
          <path class="cls-7" d="M496.75,357.55c.11.04.6-1.7,1.85-3.48,1.22-1.82,2.79-2.73,2.73-2.82-.02-.04-.45.12-1.05.54-.6.42-1.35,1.13-1.99,2.05-1.31,1.85-1.63,3.69-1.54,3.7Z"/>
          <path class="cls-7" d="M496.83,434.11s.12-.64.42-1.78c.3-1.13.86-2.74,1.79-4.63,1.85-3.77,5.2-8.55,9.47-13.34,2.11-2.42,4.17-4.7,5.91-6.88,1.74-2.18,3.18-4.26,4.22-6.09,1.05-1.84,1.73-3.41,2.13-4.52.2-.56.34-.99.42-1.29.08-.3.12-.46.11-.46-.03-.01-.23.61-.67,1.7-.44,1.09-1.16,2.63-2.23,4.44-1.07,1.81-2.51,3.85-4.27,6.01-1.75,2.16-3.8,4.43-5.92,6.85-4.28,4.8-7.63,9.65-9.43,13.48-.9,1.91-1.43,3.55-1.69,4.71-.12.58-.21,1.03-.24,1.34-.04.31-.05.47-.04.47Z"/>
          <path class="cls-7" d="M475.73,410.29s.39.23,1.11.62c.71.4,1.72,1.01,2.87,1.9,1.15.88,2.44,2.04,3.77,3.44,1.32,1.4,2.68,3.02,4.07,4.76,2.78,3.49,5.38,6.57,6.93,9.03.79,1.22,1.36,2.25,1.74,2.97.38.72.58,1.13.61,1.11.01,0-.02-.11-.1-.31-.08-.2-.19-.5-.37-.87-.34-.75-.88-1.8-1.64-3.05-1.51-2.52-4.09-5.65-6.86-9.13-1.39-1.74-2.77-3.37-4.12-4.76-1.35-1.39-2.67-2.54-3.86-3.41-1.19-.87-2.23-1.45-2.96-1.81-.37-.18-.67-.3-.86-.38-.2-.08-.31-.12-.31-.11Z"/>
          <path class="cls-7" d="M475.32,418.02c0,.06.89.16,2.34.34,1.44.19,3.44.43,5.54,1.09,2.09.68,3.83,1.72,4.96,2.6,1.14.88,1.68,1.62,1.74,1.57.02-.01-.09-.21-.35-.54-.25-.33-.66-.76-1.22-1.25-1.11-.96-2.87-2.06-5.02-2.76-2.15-.68-4.18-.88-5.63-1-1.46-.11-2.36-.12-2.36-.07Z"/>
          <path class="cls-7" d="M489.21,422.77c.12-.07-.93-1.68-1.75-3.84-.77-2.18-.95-4.1-1.08-4.08-.05,0-.05.48.04,1.25.09.77.28,1.83.68,2.95.41,1.12.94,2.06,1.36,2.71.42.65.71,1.03.76,1Z"/>
          <path class="cls-7" d="M468.9,389.53s.12.08.37.2c.29.13.65.3,1.1.5.48.21,1.06.47,1.72.81.66.34,1.43.69,2.23,1.17.41.23.83.47,1.27.72.44.25.88.56,1.34.85.94.57,1.88,1.27,2.89,1.99,1.97,1.49,4.03,3.26,6.02,5.3,1.97,2.06,3.67,4.19,5.09,6.2.68,1.03,1.35,1.99,1.89,2.95.28.48.56.92.8,1.37.24.45.46.88.68,1.3.45.82.78,1.6,1.1,2.27.32.67.57,1.26.76,1.75.19.45.34.82.46,1.11.11.25.17.38.19.38.01,0-.03-.14-.11-.41-.1-.3-.23-.68-.39-1.14-.17-.5-.39-1.1-.7-1.78-.3-.68-.61-1.48-1.05-2.31-.21-.42-.43-.86-.66-1.32-.23-.46-.52-.91-.79-1.39-.53-.97-1.19-1.95-1.87-2.99-1.42-2.04-3.12-4.19-5.11-6.27-2.01-2.06-4.1-3.83-6.09-5.32-1.02-.71-1.97-1.41-2.93-1.97-.47-.29-.92-.58-1.37-.83-.45-.25-.88-.48-1.29-.71-.82-.47-1.6-.8-2.27-1.13-.67-.33-1.27-.57-1.76-.76-.46-.18-.83-.32-1.13-.43-.26-.1-.4-.14-.4-.13Z"/>
          <path class="cls-7" d="M485.59,400.72s-.15-.65-.92-1.37c-.75-.71-2.11-1.37-3.7-1.42-1.58-.04-2.96.4-3.89.76-.94.37-1.49.67-1.47.71.02.05.61-.16,1.56-.46.95-.29,2.29-.67,3.79-.63,1.49.05,2.78.62,3.53,1.24.76.62,1.03,1.2,1.1,1.16Z"/>
          <path class="cls-7" d="M488.09,403.29c.11-.06-.84-1.44-1.05-3.42-.25-1.97.35-3.53.24-3.57-.04-.02-.25.35-.43,1-.18.65-.3,1.59-.18,2.62.12,1.03.46,1.92.78,2.5.33.59.61.9.65.87Z"/>
        </g>
        <path class="cls-8" d="M515.28,437.94c-.58,10.21-3.65,20.59-8.38,31.09h-20.58c-4.51-10.39-7.38-20.76-7.89-31.09h36.85Z"/>
        <path class="cls-20" d="M481.76,454.46c0,.11,6.78.19,15.13.19s15.13-.09,15.13-.19-6.77-.19-15.13-.19-15.13.09-15.13.19Z"/>
        <path class="cls-20" d="M482.22,458.16c0,.11,6.35.19,14.18.19s14.19-.09,14.19-.19-6.35-.19-14.19-.19-14.18.09-14.18.19Z"/>
        <path class="cls-20" d="M506.56,444.64c-.11,0-.19,2.12-.19,4.74s.09,4.74.19,4.74.19-2.12.19-4.74-.09-4.74-.19-4.74Z"/>
        <path class="cls-20" d="M495.53,444.64c-.11,0-.19,2.2-.19,4.91s.09,4.91.19,4.91.19-2.2.19-4.91-.09-4.91-.19-4.91Z"/>
        <path class="cls-20" d="M485.18,444.56c-.11,0-.19,2.24-.19,5.01s.09,5.01.19,5.01.19-2.24.19-5.01-.09-5.01-.19-5.01Z"/>
        <path class="cls-20" d="M479.08,444.64c0,.11,7.95.19,17.75.19s17.75-.09,17.75-.19-7.94-.19-17.75-.19-17.75.09-17.75.19Z"/>
      </g>
      <g>
        <g>
          <path class="cls-7" d="M124.26,446.21l-3.32,17.01-6.51,12.7c-.47.92-.07,2.04.88,2.44h0c.53.23,1.13.19,1.62-.11,3.13-1.91,14.59-9,14.77-10.26.2-1.46,4.7-17.71,4.7-17.71l-12.13-4.07Z"/>
          <path class="cls-8" d="M115.31,478.36l16.64-11.51-.16.72c-.14.62-.48,1.17-.99,1.56-1.35,1.03-5.15,3.78-13.82,9.14-.5.31-1.13.35-1.67.1h0Z"/>
          <path class="cls-5" d="M129.65,461.84c-.49.2-.77.81-.59,1.31s.8.79,1.29.59c.49-.19.85-.92.62-1.39-.23-.47-.98-.77-1.41-.47"/>
          <path class="cls-8" d="M120.8,471.81c-.11.03-.29-.94-1.2-1.64-.88-.72-1.87-.69-1.87-.8,0-.04.24-.13.65-.1.41.03.97.21,1.46.6.49.39.79.9.91,1.29.12.39.09.65.05.65Z"/>
          <path class="cls-8" d="M119.09,473.82c-.1.06-.52-.61-1.34-1.06-.81-.46-1.6-.46-1.61-.58-.03-.1.86-.28,1.79.24.93.51,1.25,1.36,1.16,1.39Z"/>
          <path class="cls-8" d="M123.68,469.4c-.1.06-.74-.97-1.96-1.77-1.2-.82-2.4-1.02-2.38-1.14,0-.1,1.3-.06,2.59.82,1.3.86,1.84,2.06,1.75,2.09Z"/>
          <path class="cls-8" d="M125.12,464.31c-.07.09-.92-.5-2.12-.81-1.2-.33-2.24-.23-2.25-.34-.03-.09,1.05-.37,2.35-.03,1.3.34,2.1,1.12,2.03,1.18Z"/>
          <path class="cls-8" d="M126.22,459.35c-.07.09-.89-.68-2.19-.91-1.29-.25-2.33.18-2.37.07-.02-.04.21-.21.65-.35.44-.14,1.09-.22,1.79-.09.7.13,1.28.43,1.64.72.36.29.52.53.48.56Z"/>
          <path class="cls-8" d="M124.27,457.5s0-.24.12-.65c.13-.4.38-.98.88-1.57.25-.27.53-.64,1.05-.76.26-.06.6.06.75.33.15.26.15.55.1.82-.25,1.07-1.4,1.91-2.65,1.8-1.24-.13-2.19-1.07-2.47-2.1-.05-.26-.06-.57.13-.83.19-.26.56-.3.79-.21.49.19.74.54.99.82.48.6.73,1.17.87,1.57.13.4.15.64.13.64-.07.03-.25-.93-1.2-2.04-.25-.26-.52-.58-.88-.7-.17-.06-.34-.02-.43.11-.09.12-.11.34-.06.55.24.85,1.11,1.7,2.16,1.8,1.05.1,2.06-.63,2.27-1.49.05-.21.04-.43-.05-.58-.08-.15-.24-.22-.41-.19-.36.06-.66.37-.9.62-.99,1.09-1.12,2.07-1.19,2.03Z"/>
        </g>
        <g>
          <path class="cls-7" d="M180.95,447.54l2.83,17.1,6.14,12.88c.44.93,0,2.04-.95,2.42h0c-.54.21-1.14.15-1.62-.16-3.07-2-14.33-9.42-14.47-10.68-.16-1.46-4.19-17.84-4.19-17.84l12.25-3.72Z"/>
          <path class="cls-8" d="M188.97,479.93l-16.3-11.99.14.72c.12.62.45,1.19.95,1.59,1.32,1.07,5.04,3.93,13.55,9.53.5.33,1.12.38,1.67.15h0Z"/>
          <path class="cls-5" d="M175.11,463c.48.21.74.83.55,1.32-.19.49-.82.76-1.31.56-.49-.21-.82-.94-.57-1.4.25-.47,1-.74,1.42-.43"/>
          <path class="cls-8" d="M183.67,473.23c.11.03.32-.94,1.24-1.61.9-.7,1.89-.64,1.89-.75,0-.04-.23-.14-.64-.12-.41.02-.97.18-1.48.56-.5.38-.82.88-.95,1.26-.13.39-.11.64-.07.65Z"/>
          <path class="cls-8" d="M185.32,475.28c.1.06.54-.6,1.37-1.02.82-.44,1.62-.42,1.62-.53.03-.1-.86-.3-1.8.19-.95.48-1.29,1.33-1.19,1.36Z"/>
          <path class="cls-8" d="M180.86,470.73c.1.07.77-.95,2.01-1.71,1.23-.78,2.43-.95,2.41-1.07.01-.1-1.3-.09-2.62.74-1.33.82-1.9,2-1.81,2.04Z"/>
          <path class="cls-8" d="M179.57,465.6c.06.09.93-.48,2.15-.75,1.21-.29,2.24-.17,2.26-.28.03-.09-1.04-.4-2.35-.09-1.31.3-2.13,1.06-2.06,1.12Z"/>
          <path class="cls-8" d="M178.61,460.61c.07.09.91-.66,2.21-.84,1.3-.21,2.32.25,2.37.14.02-.04-.21-.22-.64-.37-.43-.15-1.08-.25-1.78-.14-.7.11-1.29.4-1.66.67-.37.28-.53.51-.5.55Z"/>
          <path class="cls-8" d="M180.61,458.82s.02-.24-.1-.65c-.12-.41-.35-.99-.83-1.59-.24-.28-.51-.65-1.03-.79-.26-.07-.6.04-.76.31-.16.26-.17.55-.12.82.22,1.08,1.35,1.95,2.59,1.87,1.25-.1,2.22-1,2.53-2.03.06-.26.08-.57-.11-.83-.18-.27-.55-.32-.79-.23-.49.17-.76.52-1.01.8-.5.58-.77,1.15-.91,1.54-.15.4-.17.63-.15.64.07.03.27-.92,1.26-2,.25-.25.54-.57.9-.67.17-.05.34,0,.43.12.09.13.1.35.04.55-.26.84-1.16,1.67-2.21,1.73-1.05.07-2.04-.69-2.22-1.56-.04-.21-.03-.43.06-.58.09-.14.25-.21.42-.17.36.07.65.39.88.65.95,1.11,1.06,2.1,1.14,2.07Z"/>
        </g>
        <path class="cls-8" d="M125.88,334.85c-1.58-2.41-8.13,128.3-7.7,129.05l17.27.25,9.4-69.84,5.11-53.4,8.24,50.18,10.11,73.53,18.87.27-11.66-133.29-24.44-14-25.2,17.26Z"/>
        <g>
          <path class="cls-7" d="M142.37,247.04s-5.29.92-7.31,2.68c-2.02,1.76-4.07,5.82-4.07,5.82l-10.06,6.83,8.86,35.29-7.42,48.77,1.48,4.21,55.49-.93,1.06-3.83-5.74-44.39,2.52-29.75,2.32-11.95-10.05-4.5s4.6-1.43,4.81-2.22c.21-.79-10.37-6.23-10.37-6.23,0,0-16.69-2.83-21.52.19Z"/>
          <g class="cls-44">
            <path class="cls-4" d="M125.54,323.53c6.26,8.11,14.81,14.09,23.23,19.94,1.77,1.23,3.62,2.5,5.74,2.91,3.04.6,6.37-.8,8.07-3.39,1.22-1.85,1.63-4.19,3.07-5.88.98-1.14,2.34-1.88,3.39-2.95.91-.93,1.55-2.08,2.17-3.21,1.15-2.07,2.29-4.14,3.44-6.21-4.18-.02-8.05,2.04-11.82,3.85-3.77,1.8-7.97,3.43-12.04,2.5-5.64-1.29-9.24-7.03-14.66-9.06-3.41-1.27-7.4-.9-10.51,1"/>
          </g>
          <path class="cls-7" d="M120.93,262.38s-2.07,2.64-2.53,8.18-4.03,34.62-2.83,38.79c1.2,4.18,16.74,21.62,21.92,21.19l1.93-.7,1.85,1.43,8.27-6.2-18.23-22.94.98-33.02s-5.6-8.05-11.36-6.74Z"/>
          <path class="cls-8" d="M135.06,249.73s-.17.12-.45.38c-.29.26-.68.69-1.11,1.31-.44.61-.89,1.43-1.45,2.39-.59.93-1.27,2.01-2.02,3.2l-.12-.14c1.01-.39,2.23-.4,3.41-.01,1.18.38,2.32,1.06,3.43,1.88,2.21,1.67,4.23,4.01,6.19,6.65,3.9,5.32,7.7,11.9,11.37,19.18l.02.04v.05c-.08,2.88-.17,5.9-.26,8.98-.44,15.61-.85,29.73-1.14,39.98-.16,5.1-.29,9.24-.38,12.12-.05,1.42-.09,2.52-.12,3.29-.02.36-.03.65-.04.86-.01.19-.02.29-.03.29,0,0,0-.1-.01-.29,0-.21,0-.49,0-.86.01-.77.03-1.88.05-3.3.06-2.88.15-7.02.26-12.12.25-10.23.56-24.37,1.03-39.98.09-3.08.18-6.09.26-8.98l.02.08c-3.65-7.27-7.43-13.85-11.29-19.16-1.94-2.64-3.93-4.97-6.1-6.63-1.09-.82-2.21-1.49-3.35-1.87-1.14-.38-2.31-.38-3.27-.02l-.28.1.16-.25c.77-1.19,1.46-2.25,2.06-3.18.56-.94,1.03-1.76,1.49-2.37.45-.62.86-1.04,1.16-1.29.3-.26.49-.34.49-.34Z"/>
          <path class="cls-8" d="M172.35,253.95c.02.06-1.06.37-2.74,1.05-1.67.68-3.96,1.74-6.14,3.41-2.19,1.67-3.89,3.53-5.12,4.86-.57.62-1.06,1.15-1.45,1.58-.35.37-.55.57-.57.55-.02-.02.14-.25.46-.65.31-.4.78-.97,1.37-1.66,1.18-1.37,2.87-3.27,5.09-4.97,2.22-1.71,4.56-2.75,6.27-3.37.86-.31,1.57-.52,2.06-.65.49-.13.77-.18.78-.16Z"/>
          <path class="cls-8" d="M154.26,284.71s0-.37.07-1.04c.08-.66.22-1.62.44-2.8.44-2.35,1.21-5.57,2.24-9.07,1.05-3.5,2.15-6.62,3.11-8.81.47-1.1.91-1.97,1.23-2.56.33-.58.53-.9.55-.88.02.01-.13.35-.42.95-.28.6-.68,1.48-1.12,2.59-.9,2.21-1.96,5.33-3,8.82-1.02,3.49-1.84,6.68-2.34,9.02-.25,1.16-.43,2.11-.55,2.77-.11.66-.18,1.02-.21,1.02Z"/>
          <path class="cls-8" d="M155.99,265.19c-.09-.04,1.18-2.87,2.83-6.3,1.66-3.44,3.07-6.19,3.16-6.14s-1.18,2.86-2.84,6.3c-1.66,3.44-3.07,6.19-3.16,6.14Z"/>
          <g>
            <path class="cls-18" d="M157.72,278.28l.16-.35c.17.13.42.22.66.22.27,0,.39-.09.39-.21,0-.38-1.16-.13-1.15-.88,0-.34.28-.62.85-.61.25,0,.51.07.69.19l-.15.35c-.18-.11-.38-.16-.55-.17-.27,0-.38.1-.38.22,0,.37,1.16.13,1.15.87,0,.33-.29.62-.86.61-.32,0-.64-.1-.81-.24Z"/>
            <path class="cls-18" d="M161.26,278.16v.37s-1.56-.02-1.56-.02l.03-2,1.51.02v.37s-1.06-.02-1.06-.02v.44s.92.01.92.01v.36s-.94-.01-.94-.01v.46s1.08.02,1.08.02Z"/>
            <path class="cls-18" d="M161.5,277.53c0-.6.48-1.03,1.1-1.02.35,0,.63.14.82.37l-.3.27c-.13-.16-.3-.24-.5-.24-.38,0-.65.25-.65.63,0,.38.26.65.63.65.2,0,.37-.07.51-.23l.29.28c-.19.23-.48.35-.83.35-.62,0-1.08-.45-1.07-1.05Z"/>
            <path class="cls-18" d="M165.21,277.99c-.03-.1-.06-.2-.08-.29-.03-.07-.05-.13-.07-.2v.19c0,.38-.17.54-.46.53-.28,0-.44-.16-.44-.54l.02-1.11h-.46s-.02,1.12-.02,1.12c0,.59.32.92.89.93.33,0,.59-.11.74-.32-.05-.1-.09-.2-.13-.31Z"/>
          </g>
          <g>
            <path class="cls-18" d="M165.31,277.07v.68s0,.05.01.07c.02.05.04.1.06.16.02.08.04.17.06.25.06.23.06.45.04.66.17-.15.27-.39.27-.7l.02-1.12h-.46Z"/>
            <path class="cls-18" d="M167.48,279.11l-.38-.56h-.02s-.4,0-.4,0v.56s-.47,0-.47,0l.03-2h.87c.54.02.87.3.86.75,0,.3-.16.52-.42.63l.44.65h-.5ZM167.06,277.48h-.38s-.01.69-.01.69h.38c.28,0,.43-.12.43-.34,0-.22-.14-.35-.42-.36Z"/>
            <path class="cls-18" d="M168.33,277.12h.46s-.03,2.01-.03,2.01h-.46s.03-2.01.03-2.01Z"/>
            <path class="cls-18" d="M169.68,277.51h-.64s0-.39,0-.39l1.75.03v.38s-.65,0-.65,0l-.02,1.63h-.46s.02-1.63.02-1.63Z"/>
            <path class="cls-18" d="M171.95,278.46v.71s-.47,0-.47,0v-.72s-.75-1.3-.75-1.3h.49s.52.91.52.91l.55-.88h.46s-.8,1.29-.8,1.29Z"/>
          </g>
          <path class="cls-8" d="M166.94,283.69s-.12-.18-.28-.53c-.16-.35-.36-.86-.58-1.51-.45-1.29-.93-3.12-1.19-5.19-.26-2.07-.25-3.96-.14-5.32.05-.68.12-1.23.19-1.6.06-.38.11-.58.14-.58.06,0-.02.84-.07,2.19-.04,1.35-.01,3.22.25,5.26.26,2.04.7,3.86,1.08,5.16.38,1.3.67,2.09.61,2.11Z"/>
          <g class="cls-44">
            <path class="cls-4" d="M155.63,278.12c-.3,2.49-1.1,3.72-1.13,6.23,0,.54-.86,9.02-.36,9.21.59.23,2.83-5.95,3.32-9.03.38-2.41,1.07-5.59,1.47-8,1.18-7.03,3.79-10.82,7.44-16.94.69-1.16,3.28-4.31,3.28-4.31-.25-.16-1.27.33-1.99.65-2.06.93-5.75,3.88-5.75,3.88,0,0-2.22,4.24-2.97,6.37-1.44,4.09-2.55,8.22-3.36,12.33"/>
          </g>
          <g class="cls-44">
            <path class="cls-4" d="M132.53,256.77s-2.25,1.23-2.24,2.22c.01.99.77,1.84,1.64,2.32s1.86.69,2.79,1.04c2.19.82,4.01,2.38,5.66,4.04,2.7,2.71,5.08,5.76,7.05,9.04,1.64,2.73,3.15,5.77,5.9,7.38-1.86-3.33-3.79-6.55-5.65-9.88-1.86-3.32-4-6.48-6.43-9.41-2.42-2.94-6.37-6.5-8.72-6.74"/>
          </g>
          <path class="cls-8" d="M124.5,305.92s-.02-.06-.03-.18c-.01-.12-.01-.3,0-.54.04-.47.19-1.17.67-1.91.47-.73,1.31-1.53,2.52-1.82,1.18-.3,2.69-.1,3.87.86l-.27.13c-.11-2.13.03-4.54.42-7.04.36-2.3.78-4.47,1.02-6.46.25-1.99.38-3.79.41-5.31.05-1.52.04-2.75.02-3.6,0-.39,0-.71,0-.98,0-.22,0-.34.02-.34.01,0,.03.12.05.34.02.27.05.59.08.98.06.85.11,2.08.1,3.61,0,1.53-.1,3.34-.34,5.35-.22,2.01-.64,4.19-.99,6.48-.39,2.48-.53,4.86-.45,6.97v.37s-.27-.24-.27-.24c-1.07-.9-2.49-1.11-3.6-.85-1.13.26-1.94.98-2.41,1.67-.48.7-.66,1.36-.73,1.81-.07.45-.06.71-.08.71Z"/>
          <path class="cls-8" d="M126.26,322.96s.08.06.22.19c.16.16.36.35.61.6.55.51,1.34,1.26,2.42,2.14,1.08.87,2.43,1.89,4.07,2.88.82.49,1.72,1,2.71,1.36.49.18,1.02.28,1.56.23.52-.04,1.08-.26,1.44-.63l.11-.11.12.09c.58.45,1.21.93,1.85,1.43h-.21c2.55-1.92,5.34-4.01,8.26-6.21l-.03.26c-.05-.06-.1-.12-.15-.18-2.49-3.1-4.72-6.17-6.78-8.92-2.06-2.76-3.93-5.23-5.54-7.27-1.61-2.04-2.98-3.64-3.96-4.71-.48-.54-.88-.94-1.15-1.22-.27-.28-.4-.43-.39-.43,0,0,.16.12.44.38.29.26.7.64,1.2,1.17,1.02,1.05,2.42,2.62,4.06,4.65,1.65,2.02,3.54,4.48,5.61,7.23,2.08,2.74,4.31,5.8,6.8,8.89.05.06.1.13.15.18l.12.15-.15.11c-2.93,2.19-5.73,4.28-8.28,6.19l-.1.08-.1-.08c-.64-.5-1.27-.99-1.85-1.44l.22-.02c-.47.48-1.07.68-1.66.74-.59.05-1.17-.07-1.69-.26-1.03-.39-1.92-.91-2.75-1.42-1.65-1.02-2.99-2.06-4.06-2.96-1.07-.9-1.85-1.68-2.37-2.22-.24-.26-.43-.47-.58-.63-.13-.15-.19-.22-.19-.23Z"/>
          <path class="cls-8" d="M132.91,271.53c-.06.02-.33-.81-1.01-2.03-.33-.61-.79-1.3-1.36-2.02-.58-.71-1.28-1.44-2.08-2.13-.82-.67-1.67-1.22-2.47-1.67-.81-.43-1.57-.76-2.23-.97-1.32-.44-2.19-.56-2.18-.62,0-.02.22-.01.61.03.39.04.96.15,1.64.35.68.19,1.47.5,2.31.92.83.44,1.71.99,2.55,1.68.83.7,1.54,1.46,2.12,2.2.57.75,1.01,1.47,1.32,2.11.31.64.53,1.17.64,1.55.12.38.17.59.14.6Z"/>
          <g class="cls-44">
            <path class="cls-4" d="M166.3,281.9c.23.5,1.05.19,1.15-.2s-.1-.78-.29-1.13c-1.3-2.51-2.09-5.28-2.3-8.1-.22,3.42.14,6.26,1.44,9.43"/>
          </g>
          <g class="cls-44">
            <path class="cls-4" d="M124.2,305.18c-.62-1.95.31-4.28,2.11-5.27.46-.25.98-.43,1.5-.39,1.13.08,1.95,1.09,2.61,2.01-1.26-.38-2.67-.2-3.79.48-1.12.68-1.94,1.84-2.19,3.13"/>
          </g>
          <path class="cls-8" d="M178.86,262.87s-.36.69-.95,1.8c-.59,1.1-1.31,2.67-1.9,4.48-.59,1.81-.92,3.51-1.1,4.75-.18,1.24-.23,2.01-.29,2.01-.04,0-.08-.78.03-2.04.11-1.26.41-2.99,1.01-4.83.6-1.84,1.38-3.41,2.03-4.5.65-1.09,1.14-1.69,1.17-1.67Z"/>
          <g class="cls-44">
            <path class="cls-4" d="M174.24,280.64c-.38.39-.48,3.65-.48,3.65,0,3.94.25,5.66.26,9.6,0,1.63,0,3.27-.43,4.84-.23.83-.58,1.62-.92,2.41-.44,1-.88,2.01-1.52,2.89-.54.74-1.2,1.38-1.85,2.02-3.11,3.09-5.94,6.46-8.46,10.04l-1.54,2.26,15.26-14.32.75-1.89.04-.22-1.11-21.27Z"/>
          </g>
          <g>
            <path class="cls-7" d="M179.49,259.81s2.4.9,3.66,6.27c1.45,6.19,3.35,16.5,3.64,20.4.25,3.28,3.47,15.28.98,20.56s-14.54,21.59-19.3,22.11l-1.98-.5-2.08.36-5.85-6.73.51-1.93s-.66-1.07.03-2.03,15.6-14.97,15.6-14.97c0,0-.57-.07-.69-1.04-.21-1.66,1.24-1.6,1.24-1.6l-.96-14.66,5.22-26.24Z"/>
            <path class="cls-8" d="M180.4,305.08c-.06.09-1.16-.7-2.72-1.19-1.56-.51-2.91-.51-2.91-.62-.02-.09,1.39-.26,3.02.27,1.63.52,2.68,1.47,2.61,1.54Z"/>
            <path class="cls-8" d="M183.41,302.89c-.07.1-1.53-1.32-3.86-1.92-2.33-.64-4.3-.15-4.31-.26-.01-.04.46-.22,1.26-.32.8-.1,1.94-.08,3.14.24,1.2.32,2.2.88,2.84,1.36.65.49.96.88.93.91Z"/>
            <path class="cls-8" d="M174.77,303.28s-.25.01-.55-.22c-.15-.12-.3-.31-.39-.56-.08-.25-.08-.55,0-.83.05-.19.12-.35.21-.51l-.02.04c.22-.5.68-.6.93-.62.28-.02.43.06.42.1,0,.04-.16.05-.38.12-.21.07-.54.23-.64.51h0s-.01.04-.01.04c-.06.12-.12.27-.16.42-.13.47,0,.88.22,1.11.21.24.4.35.38.4Z"/>
            <path class="cls-8" d="M174.09,279.92s.07.29.13.81c.06.52.13,1.29.21,2.23.15,1.88.29,4.49.42,7.36.12,2.83.23,5.4.31,7.36.04.88.07,1.63.09,2.23.02.53.01.82-.01.82-.03,0-.07-.29-.13-.81-.06-.52-.13-1.29-.21-2.23-.15-1.88-.29-4.49-.42-7.36-.12-2.83-.23-5.4-.31-7.36-.04-.88-.07-1.63-.09-2.23-.02-.53-.01-.82.01-.82Z"/>
            <path class="cls-8" d="M175.01,303.17s-.12.13-.37.36c-.27.25-.64.58-1.1,1-.98.89-2.37,2.15-4.09,3.71-1.72,1.59-3.77,3.51-6.03,5.71-1.13,1.1-2.31,2.27-3.52,3.49-.29.31-.57.63-.75,1-.18.37-.21.77-.13,1.2.07.43.23.86.22,1.38-.01.47-.2,1.07-.75,1.3l.07-.29c.97,1.11,1.98,2.27,3.02,3.45,1.01,1.15,2,2.29,2.96,3.39l-.17-.06c.7-.12,1.4-.24,2.08-.35h.03s.02,0,.02,0c.91.11,1.67.53,2.46.4.79-.1,1.5-.51,2.13-.98,1.25-.97,2.33-2.08,3.34-3.12,2-2.1,3.65-4.1,4.99-5.78,1.35-1.68,2.4-3.04,3.13-3.98.35-.45.63-.8.84-1.07.19-.24.3-.36.31-.36,0,0-.08.14-.26.4-.2.28-.46.64-.79,1.11-.7.96-1.72,2.34-3.05,4.05-1.33,1.7-2.95,3.72-4.95,5.85-1.01,1.05-2.08,2.16-3.36,3.17-.65.49-1.4.94-2.29,1.05-.91.15-1.75-.31-2.54-.39h.05c-.68.12-1.38.24-2.08.36l-.1.02-.07-.08c-.97-1.1-1.96-2.24-2.97-3.39-1.03-1.18-2.05-2.34-3.01-3.45l-.17-.19.24-.09c.35-.13.51-.57.52-.98.02-.41-.13-.85-.21-1.3-.09-.45-.06-.98.16-1.41.21-.43.51-.77.82-1.09,1.23-1.23,2.41-2.39,3.55-3.48,2.27-2.19,4.34-4.09,6.09-5.66,1.75-1.57,3.18-2.8,4.17-3.63.48-.4.86-.71,1.15-.95.26-.21.41-.32.41-.31Z"/>
          </g>
          <path class="cls-8" d="M174.65,294.77c0,.1-9.54.04-21.3-.12-11.76-.17-21.3-.39-21.29-.49,0-.1,9.54-.04,21.3.12,11.76.17,21.29.39,21.29.49Z"/>
          <path class="cls-8" d="M163.71,300.54s0,.09-.02.27c-.03.17-.05.44-.13.76-.13.66-.39,1.6-.84,2.72-.88,2.22-2.74,5.16-5.75,7.33-3.02,2.17-6.39,3-8.78,3.13-1.2.07-2.18.02-2.85-.07-.33-.03-.59-.09-.76-.12-.17-.03-.26-.06-.26-.07,0-.08,1.48.21,3.85,0,2.35-.2,5.63-1.05,8.58-3.17,2.95-2.12,4.8-4.97,5.73-7.13.95-2.18,1.14-3.67,1.22-3.65Z"/>
          <path class="cls-8" d="M143.29,329.78c-.06.08-.46-.15-.82-.57-.36-.42-.52-.84-.44-.9.09-.05.38.27.71.66.34.39.61.73.54.8Z"/>
          <path class="cls-8" d="M145.96,327.7c-.08.06-.38-.21-.67-.6-.29-.39-.46-.76-.38-.82.08-.06.38.21.67.6.29.39.46.76.38.82Z"/>
          <path class="cls-8" d="M161.44,322.09c.05.09-.35.38-.85.72-.5.33-.92.59-.99.51-.07-.07.27-.47.79-.82.52-.35,1.01-.51,1.06-.42Z"/>
          <path class="cls-8" d="M163.42,324.04c.08.05-.16.58-.67,1.08-.5.5-1.04.73-1.09.65-.05-.09.36-.44.83-.91.47-.46.83-.88.92-.82Z"/>
          <path class="cls-8" d="M165.33,326.37c.07.07-.24.51-.75.92-.52.41-1.02.61-1.07.52-.05-.09.35-.42.84-.81.49-.39.9-.71.98-.64Z"/>
          <path class="cls-8" d="M138.18,251.91c.1-.04.94,2.06,2.37,4.44,1.42,2.39,2.87,4.12,2.78,4.19-.04.03-.44-.36-1.03-1.07-.59-.71-1.34-1.73-2.06-2.94-.72-1.21-1.26-2.36-1.6-3.21-.34-.85-.49-1.4-.45-1.42Z"/>
          <path class="cls-8" d="M180.39,345.89s-.2.02-.59.03c-.42,0-.99.01-1.7.02-1.51.01-3.63.03-6.23.06-5.26.06-12.53.26-20.56.51-8.03.24-15.3.4-20.57.4-2.63,0-4.76-.02-6.23-.06-.71-.02-1.27-.04-1.69-.05-.39-.02-.59-.03-.59-.04,0-.01.2-.02.59-.03.42,0,.98-.01,1.69-.02,1.51-.01,3.63-.03,6.23-.06,5.26-.06,12.53-.26,20.56-.51,8.03-.24,15.3-.4,20.57-.4,2.63,0,4.76.02,6.24.06.71.02,1.27.04,1.69.05.39.02.59.03.59.04Z"/>
        </g>
        <path class="cls-7" d="M165.9,253.05c-.08.07-.94-.91-2.28-1.73-1.33-.84-2.59-1.17-2.56-1.28,0-.09,1.36.09,2.75.97,1.4.86,2.17,1.99,2.09,2.04Z"/>
        <g>
          <path class="cls-19" d="M161.37,330.36c.26.51.9.7,1.47.68.57-.02,1.12-.21,1.69-.24.57-.03,1.21.14,1.5.63.23.39.18.9-.05,1.29-.22.39-.59.68-.98.91-1.86,1.09-4.42.85-6.04-.58"/>
          <g>
            <path class="cls-19" d="M148.54,339.05c1.65,1.64,3.46,3.11,5.41,4.38.43.28.92.56,1.43.48.51-.08.91-.74.57-1.13.52.42,1.32.44,1.86.04.51-.37.75-1.08.57-1.69-.01-.04.02-.07.06-.06.5.19,1.09.18,1.54-.11.48-.3.76-.93.57-1.47.52.7,1.76.42,2.16-.35s.12-1.75-.41-2.45c-.53-.69-1.27-1.19-1.94-1.75-.67-.56-1.3-1.26-1.45-2.12"/>
            <path class="cls-10" d="M156.17,343.08c-.04.09-.98-.3-1.84-1.19-.87-.88-1.25-1.82-1.17-1.86.09-.05.6.77,1.43,1.6.82.84,1.64,1.35,1.59,1.44Z"/>
            <path class="cls-10" d="M158.79,341.46c-.05.08-.86-.36-1.66-1.15-.8-.79-1.25-1.6-1.17-1.65.09-.06.65.63,1.42,1.39.77.77,1.46,1.32,1.4,1.41Z"/>
            <path class="cls-10" d="M161.07,339.84c-.05.08-.83-.32-1.59-1.07-.77-.74-1.19-1.51-1.11-1.56.09-.06.63.59,1.36,1.3.73.72,1.4,1.24,1.34,1.33Z"/>
          </g>
          <g>
            <path class="cls-19" d="M143.95,323.24s-.21-.89,2.09-.6c2.3.29,3.32.51,5.9.38s6.77-.87,6.77-.87l6.74,5.93s-6.89,6.05-8.95,7.13c-2.06,1.08-6.26,3.77-8.65,3.64-1.82-.1-1.98-1-1.98-1,0,0-1.77-1.22-1.51-1.81,0,0-2.1-.12-1.71-1.73,0,0-1.5-.28-1.74-1.13-.24-.86.89-1.86,1.32-2.29.7-.69,6.83-5.19,6.86-5.32,0,0-5.24-.52-5.14-2.31Z"/>
            <path class="cls-10" d="M148.3,329.79c.06.08-1.17,1.13-2.76,2.35-1.58,1.22-2.92,2.15-2.98,2.07-.06-.08,1.17-1.13,2.76-2.35,1.58-1.22,2.92-2.14,2.98-2.07Z"/>
            <path class="cls-10" d="M151.54,330.42s-.25.46-.81,1.1c-.55.63-1.38,1.46-2.39,2.25-1.01.79-2.01,1.4-2.76,1.78-.75.38-1.24.56-1.26.52-.05-.1,1.81-1.01,3.8-2.58,2-1.55,3.34-3.14,3.42-3.06Z"/>
            <path class="cls-10" d="M154.44,332.49s-.27.53-.91,1.23c-.64.71-1.63,1.59-2.88,2.34-1.25.75-2.5,1.21-3.42,1.44-.92.23-1.51.27-1.52.23-.03-.12,2.31-.49,4.75-1.98,2.46-1.46,3.89-3.35,3.98-3.27Z"/>
            <path class="cls-10" d="M162.67,330.56s-.16.21-.51.53c-.34.32-.85.77-1.51,1.29-1.3,1.06-3.18,2.43-5.39,3.72-1.1.65-2.18,1.22-3.18,1.7-.99.49-1.94.87-2.78,1.03-.84.18-1.55.13-2.01,0-.46-.12-.68-.27-.68-.29,0-.07,1.01.46,2.63.04.8-.19,1.71-.58,2.68-1.08.98-.5,2.05-1.07,3.15-1.71,2.19-1.28,4.08-2.61,5.42-3.61,1.34-1,2.13-1.66,2.17-1.62Z"/>
          </g>
        </g>
        <g>
          <g>
            <g>
              <g>
                <path class="cls-19" d="M150.33,212.94c-6.73-.62-12.67,4.39-13.17,11.13-.42,5.61-.81,11.68-.82,14.74-.01,6.57,6.54,7.68,6.54,7.68,0,0-.19,1.94-.4,4.35-.44,4.86,3.23,9.11,8.09,9.41h0c4.77.29,8.87-3.35,9.15-8.12l1.57-26.43c.39-6.51-4.46-12.16-10.96-12.76h0Z"/>
                <path class="cls-10" d="M142.87,246.39s4.14.4,8.59-2.31c0,0-2.2,4.75-8.74,4.06l.15-1.75Z"/>
              </g>
              <g>
                <path class="cls-19" d="M160.65,227.94c.11-.05,4.53-1.27,4.32,3.22-.21,4.49-4.67,3.35-4.67,3.22,0-.13.35-6.44.35-6.44Z"/>
                <path class="cls-10" d="M161.75,232.75s.08.06.2.12c.13.06.35.12.58.04.48-.15.92-.89.98-1.69.03-.41-.04-.8-.17-1.13-.12-.33-.32-.57-.56-.63-.23-.07-.41.07-.47.19-.07.12-.04.21-.07.22-.01.01-.09-.08-.05-.26.02-.09.08-.19.19-.27.11-.08.27-.12.44-.09.34.04.64.37.78.73.16.36.25.81.21,1.26-.07.9-.57,1.73-1.23,1.88-.32.07-.58-.04-.71-.15-.13-.12-.15-.22-.14-.23Z"/>
              </g>
              <g>
                <g>
                  <g>
                    <path class="cls-8" d="M139.71,227.65c-.02.49.37.92.89.96.52.04.95-.34.98-.83.02-.49-.37-.92-.89-.96-.52-.04-.96.34-.98.83Z"/>
                    <path class="cls-8" d="M138.82,226.43c.11.12.83-.39,1.84-.37,1.01,0,1.74.53,1.85.41.05-.05-.06-.28-.38-.52-.31-.24-.85-.47-1.48-.48-.63,0-1.16.22-1.47.45-.31.23-.42.45-.37.51Z"/>
                  </g>
                  <g>
                    <path class="cls-8" d="M149.82,227.92c-.02.49.37.92.89.96.52.04.95-.34.98-.83.02-.49-.37-.92-.89-.96-.52-.04-.95.34-.98.83Z"/>
                    <path class="cls-8" d="M148.73,226.76c.11.12.83-.39,1.84-.37,1.01,0,1.74.53,1.85.41.05-.05-.06-.28-.38-.52-.31-.24-.85-.47-1.48-.48-.63,0-1.16.22-1.47.45-.31.23-.42.45-.37.51Z"/>
                  </g>
                  <path class="cls-8" d="M144.96,234.19c0-.06-.62-.17-1.63-.32-.26-.03-.5-.09-.54-.26-.06-.19.05-.46.18-.76.25-.62.51-1.27.79-1.95,1.1-2.78,1.9-5.06,1.78-5.11-.11-.04-1.09,2.17-2.19,4.95-.26.69-.52,1.34-.76,1.96-.1.29-.27.62-.15,1.01.07.19.25.34.42.38.16.05.31.06.44.07,1.02.07,1.66.08,1.66.03Z"/>
                </g>
                <path class="cls-8" d="M147.57,223.11c.12.27,1.11.07,2.3.14,1.19.04,2.17.32,2.31.07.06-.12-.12-.37-.52-.61-.4-.24-1.02-.45-1.74-.48-.71-.03-1.36.12-1.77.33-.42.2-.63.43-.58.56Z"/>
                <path class="cls-8" d="M138.44,222.72c.17.23.87,0,1.71,0,.84-.03,1.54.18,1.71-.06.07-.12-.03-.35-.34-.57-.3-.22-.81-.4-1.38-.4-.57,0-1.08.21-1.37.44-.3.23-.4.47-.32.58Z"/>
              </g>
            </g>
            <path class="cls-8" d="M161.16,227.74c.05.69.01,1.48-.14,2.15-.16.67-.55,1.32-1.17,1.62-1.14.55-2.54-.34-3.03-1.5s-.33-2.48-.2-3.73c.18-1.71.3-3.45,0-5.14-.3-1.69-1.07-3.35-2.4-4.44-1.33-1.09-3.27-1.5-4.83-.77-.96.45-1.69,1.28-2.58,1.85-.81.51-1.78.8-2.72.64-.94-.16-2.21-.82-2.05-1.76.37-2.19-1.15-.35-1.05-.73.17-.62,1.43-1.69,1.95-2.07.97-.71,1.99-1.05,3.02-1.23,2.84-.5,5.9-.14,8.57.97,2.67,1.11,5.01,3.17,6.1,5.84,1.26,3.09,1.06,4.96.64,8.29"/>
          </g>
          <path class="cls-8" d="M147.1,237.18c.01.2-.83.41-1.87.47-1.04.06-1.9-.06-1.91-.26-.01-.2.83-.41,1.87-.47,1.04-.06,1.9.06,1.91.26Z"/>
          <g>
            <path class="cls-8" d="M161.15,228.14s-.54-.05-1.37-.3c-.83-.25-1.95-.67-3.18-1.16-1.14-.46-2.18-.88-3.12-1.26-.8-.31-1.3-.49-1.29-.54.01-.05.54.05,1.37.3.83.25,1.95.67,3.18,1.16,1.14.46,2.18.88,3.12,1.26.8.31,1.3.49,1.29.54Z"/>
            <path class="cls-8" d="M142.49,224.26c.6.07,1.08.52,1.17,1.12.18,1.18-.02,2.41-.58,3.46-.72,1.36-2.02,2.4-3.51,2.79-.85.23-1.82.23-2.56-.24-1.04-.66-1.37-2.03-1.46-3.26-.07-.9-.04-1.86.45-2.62.63-.96,1.87-1.33,3.02-1.4s3.46.14,3.46.14h0Z"/>
            <path class="cls-8" d="M147.76,224.42c-.6.05-1.11.5-1.22,1.1-.21,1.18-.05,2.44.48,3.52.69,1.4,1.97,2.48,3.47,2.92.86.25,1.83.29,2.6-.17,1.08-.64,1.44-2.01,1.57-3.25.09-.91.1-1.88-.38-2.66-.61-.99-1.85-1.4-3.01-1.5s-3.5.04-3.5.04h0Z"/>
            <path class="cls-8" d="M148.82,224.61c0,.1-1.73.15-3.85.11-2.12-.04-3.84-.16-3.84-.26,0-.1,1.73-.15,3.85-.11,2.12.04,3.84.16,3.84.26Z"/>
          </g>
          <g>
            <path class="cls-11" d="M160.9,254.38s-.01-.04-.02-.11c0-.07,0-.18.01-.32.03-.28.17-.69.43-1.16.26-.47.59-1.03.79-1.75.21-.72.3-1.57.3-2.51,0-.95-.12-1.97-.19-3.11,0-.29.03-.62.22-.91.17-.27.52-.53.92-.42.18.05.34.17.45.34.11.17.11.43-.01.6-.29.36-.73.33-1.06.21-.66-.31-1.03-1.1-.84-1.83.1-.36.31-.68.62-.91.16-.11.34-.19.55-.22.2-.02.45.03.62.21.15.17.25.41.15.67-.11.26-.39.35-.58.36-.42.02-.81-.17-1.08-.46-.27-.29-.44-.71-.37-1.13.06-.42.33-.78.68-.99.29-.18.65-.26,1.01-.18.18.05.34.14.47.28.13.13.23.37.16.58-.06.22-.25.36-.42.42-.18.06-.35.07-.52.04-.33-.05-.63-.19-.88-.39-.5-.39-.81-1.09-.57-1.72.23-.59.85-1.04,1.51-.89.31.08.62.3.67.68.02.19-.06.38-.19.5-.13.12-.29.18-.45.2-.34.02-.61-.14-.82-.3-.22-.17-.4-.38-.52-.63-.26-.49-.15-1.18.32-1.5.48-.34,1.21-.07,1.31.51l.02.1-.08.05c-.66.36-1.46-.01-1.7-.61-.13-.31-.07-.65.08-.9.15-.26.37-.45.63-.56.26-.11.55-.11.79,0,.24.09.45.37.39.64-.02.13-.12.26-.25.3-.13.05-.26.03-.36-.02-.22-.09-.33-.31-.37-.49-.12-.73-.06-1.28-.02-1.66.05-.38.11-.57.12-.57.06,0-.19.81.05,2.19.05.16.13.31.29.37.15.07.33,0,.35-.16.07-.36-.51-.58-.9-.38-.41.17-.75.69-.55,1.15.17.45.85.74,1.31.46l-.07.14c-.04-.33-.56-.54-.85-.3-.32.22-.42.72-.21,1.11.19.37.63.76,1.02.75.19-.02.37-.17.34-.33-.01-.16-.21-.34-.41-.38-.43-.11-.94.23-1.1.68-.17.45.06,1,.47,1.32.2.16.45.28.7.31.24.04.52-.05.55-.2.06-.14-.14-.36-.37-.41-.23-.05-.51,0-.73.14-.27.16-.47.44-.51.74-.05.29.07.61.28.83.21.23.51.36.79.35.3,0,.36-.22.2-.42-.14-.16-.48-.12-.7.05-.24.17-.41.43-.49.71-.17.56.15,1.21.63,1.43.23.1.56.08.65-.08.12-.15-.03-.4-.25-.46-.2-.06-.44.08-.57.29-.14.2-.18.47-.18.73.05,1.1.16,2.16.14,3.11-.01.96-.12,1.84-.36,2.57-.22.74-.59,1.31-.86,1.76-.27.45-.43.83-.48,1.1-.06.27-.05.42-.07.42Z"/>
            <path class="cls-11" d="M163.48,232.91c-.04-.34-.12-.68-.3-.97s-.47-.52-.81-.55c-.38-.04-.76.21-.89.57-.12.35.04.77.33.99,0,0,.01.01.02.02,0,0,0,0,0,0h0s.06.03.08.05c.12.07.28.08.4.16.24.15.32.47.31.75-.01.28-.09.56-.07.84.02.21.13.44.34.45.18,0,.3-.17.38-.33.28-.61.3-1.31.21-1.97Z"/>
          </g>
          <g>
            <path class="cls-18" d="M142.78,247.54s-1.41,2.06-1.52,3.4c-.08.89.52,4.34.92,6.57.23,1.28.73,2.5,1.47,3.57l.91,1.33c1.32,1.93,2.41,4,3.27,6.17,1.77,4.49,4.76,12.04,4.86,12.4.15.52,1.32,2.64,1.32,2.64l1.58-18.86,4.76-9.43c.41-.82.65-1.72.68-2.64l.11-3.03c.04-1.11-.35-2.19-1.1-3.01h0l-.24,2.72-7.89,7.17-9.15-6.16.02-2.86Z"/>
            <path class="cls-8" d="M151.51,256.63c.04.07-.88.33-1.65,1.56-.79,1.18-1.4,3.09-1.92,5.22-.05.21-.11.42-.15.61l-.07.28-.22-.19c-1.59-1.33-2.82-2.72-3.7-3.7-.88-.99-1.4-1.6-1.37-1.64.03-.03.62.52,1.55,1.47.93.94,2.18,2.28,3.75,3.59l-.29.1c.05-.2.1-.4.15-.61.52-2.14,1.17-4.08,2.06-5.27.43-.6.89-1,1.27-1.19.36-.2.59-.24.6-.22Z"/>
            <path class="cls-8" d="M157.14,261.71c.06.04-.67,1.21-1.78,2.89l-.29.44v-.53c-.02-.77-.23-1.64-.5-2.56-.42-1.62-.81-3.08-1.4-3.97-.58-.91-1.17-1.28-1.13-1.33.01-.02.17.06.42.24.25.18.59.49.92.95.69.91,1.13,2.41,1.54,4.02.26.92.47,1.83.46,2.66l-.3-.09c1.16-1.64,1.99-2.74,2.05-2.7Z"/>
            <path class="cls-8" d="M153.53,282.35c-.1,0-.55-5.71-1-12.77-.45-7.06-.74-12.79-.64-12.79s.55,5.71,1,12.77c.45,7.06.74,12.79.64,12.79Z"/>
          </g>
          <path class="cls-11" d="M135.9,228.15c-.09.04-.39-.73-.08-1.64.3-.92,1-1.35,1.05-1.27.07.08-.45.58-.7,1.38-.27.8-.16,1.5-.26,1.53Z"/>
          <path class="cls-11" d="M147.44,228.54c-.07.06-.54-.53-.53-1.42,0-.88.46-1.48.53-1.42.09.05-.17.65-.17,1.42,0,.77.26,1.37.17,1.42Z"/>
        </g>
      </g>
      <path class="cls-14" d="M546.37,167.21v-4.31h-2.35c-.32-1.82-1.03-3.5-2.05-4.95l1.66-1.66-3.05-3.05-1.66,1.66c-1.45-1.02-3.13-1.73-4.95-2.05v-2.35h-4.31v2.35c-1.82.32-3.5,1.03-4.95,2.05l-1.66-1.66-3.05,3.05,1.66,1.66c-1.02,1.45-1.73,3.13-2.05,4.95h-2.35v4.31h2.35c.32,1.82,1.03,3.5,2.05,4.95l-1.66,1.66,3.05,3.05,1.66-1.66c1.45,1.02,3.13,1.73,4.95,2.05v2.35h4.31v-2.35c1.82-.32,3.5-1.03,4.95-2.05l1.66,1.66,3.05-3.05-1.66-1.66c1.02-1.45,1.73-3.13,2.05-4.95h2.35ZM531.81,173.19c-4.5,0-8.14-3.65-8.14-8.14s3.64-8.14,8.14-8.14,8.14,3.64,8.14,8.14-3.65,8.14-8.14,8.14Z"/>
      <path class="cls-14" d="M96.83,374.64v-3.85h-2.11c-.29-1.63-.92-3.13-1.83-4.43l1.49-1.49-2.73-2.73-1.49,1.49c-1.3-.91-2.8-1.54-4.43-1.83v-2.11h-3.85v2.11c-1.63.29-3.13.92-4.43,1.83l-1.49-1.49-2.73,2.72,1.49,1.49c-.91,1.3-1.54,2.8-1.83,4.43h-2.11v3.85h2.11c.29,1.63.92,3.13,1.83,4.43l-1.49,1.49,2.72,2.73,1.49-1.49c1.3.91,2.8,1.55,4.43,1.83v2.11h3.85v-2.11c1.63-.29,3.13-.92,4.43-1.83l1.49,1.49,2.73-2.73-1.49-1.49c.91-1.3,1.54-2.8,1.83-4.43h2.11ZM83.82,379.99c-4.02,0-7.28-3.26-7.28-7.28s3.26-7.28,7.28-7.28,7.28,3.26,7.28,7.28-3.26,7.28-7.28,7.28Z"/>
      <path class="cls-3" d="M66.64,434.5v-2.68h-1.46c-.2-1.13-.64-2.17-1.27-3.08l1.03-1.03-1.89-1.89-1.03,1.03c-.9-.63-1.95-1.07-3.08-1.27v-1.46h-2.68v1.46c-1.13.2-2.17.64-3.08,1.27l-1.03-1.03-1.89,1.89,1.03,1.03c-.63.9-1.07,1.95-1.27,3.08h-1.46v2.68h1.46c.2,1.13.64,2.17,1.27,3.08l-1.03,1.03,1.89,1.89,1.03-1.03c.9.63,1.95,1.07,3.08,1.27v1.46h2.68v-1.46c1.13-.2,2.17-.64,3.08-1.27l1.03,1.03,1.89-1.89-1.03-1.03c.63-.9,1.07-1.95,1.27-3.08h1.46ZM57.6,438.23c-2.79,0-5.06-2.27-5.06-5.06s2.27-5.06,5.06-5.06,5.06,2.27,5.06,5.06-2.27,5.06-5.06,5.06Z"/>
      <path class="cls-3" d="M458.01,514.48v-4.35h-2.38c-.32-1.84-1.04-3.53-2.07-5l1.68-1.68-3.08-3.08-1.68,1.68c-1.47-1.03-3.16-1.74-5-2.07v-2.38h-4.35v2.38c-1.84.32-3.53,1.04-5,2.07l-1.68-1.68-3.08,3.08,1.68,1.68c-1.03,1.47-1.75,3.16-2.07,5h-2.38v4.35h2.38c.32,1.84,1.04,3.53,2.07,5l-1.68,1.68,3.08,3.08,1.68-1.68c1.47,1.03,3.17,1.75,5,2.07v2.38h4.35v-2.38c1.84-.32,3.53-1.04,5-2.07l1.68,1.68,3.08-3.08-1.68-1.68c1.03-1.47,1.75-3.16,2.07-5h2.38ZM443.31,520.52c-4.54,0-8.23-3.68-8.23-8.23s3.68-8.23,8.23-8.23,8.23,3.68,8.23,8.23-3.68,8.23-8.23,8.23Z"/>
      <path class="cls-3" d="M569.79,371.93l5.03-5.03c.76-.76.76-1.99,0-2.74-.76-.76-1.99-.76-2.74,0l-5.03,5.03-5.03-5.03c-.76-.76-1.99-.76-2.74,0-.76.76-.76,1.99,0,2.74l5.03,5.03-5.03,5.03c-.76.76-.76,1.99,0,2.74.76.76,1.99.76,2.74,0l5.03-5.03,5.03,5.03c.76.76,1.99.76,2.74,0,.76-.76.76-1.99,0-2.74l-5.03-5.03Z"/>
      <path class="cls-3" d="M58.89,165.98v-4.27c0-.64-.52-1.16-1.16-1.16-.64,0-1.16.52-1.16,1.16v4.27h-4.27c-.64,0-1.16.52-1.16,1.16s.52,1.16,1.16,1.16h4.27v4.27c0,.64.52,1.16,1.16,1.16.64,0,1.16-.52,1.16-1.16v-4.27s4.27,0,4.27,0c.64,0,1.16-.52,1.16-1.16,0-.64-.52-1.16-1.16-1.16h-4.27Z"/>
      <path class="cls-3" d="M76.28,165.98v-4.27c0-.64-.52-1.16-1.16-1.16-.64,0-1.16.52-1.16,1.16v4.27h-4.27c-.64,0-1.16.52-1.16,1.16s.52,1.16,1.16,1.16h4.27v4.27c0,.64.52,1.16,1.16,1.16s1.16-.52,1.16-1.16v-4.27s4.27,0,4.27,0c.64,0,1.16-.52,1.16-1.16,0-.64-.52-1.16-1.16-1.16h-4.27Z"/>
      <path class="cls-3" d="M58.89,148.59v-4.27c0-.64-.52-1.16-1.16-1.16-.64,0-1.16.52-1.16,1.16v4.27h-4.27c-.64,0-1.16.52-1.16,1.16s.52,1.16,1.16,1.16h4.27v4.27c0,.64.52,1.16,1.16,1.16s1.16-.52,1.16-1.16v-4.27s4.27,0,4.27,0c.64,0,1.16-.52,1.16-1.16,0-.64-.52-1.16-1.16-1.16h-4.27Z"/>
      <path class="cls-3" d="M58.89,183.38v-4.27c0-.64-.52-1.16-1.16-1.16-.64,0-1.16.52-1.16,1.16v4.27h-4.27c-.64,0-1.16.52-1.16,1.16s.52,1.16,1.16,1.16h4.27v4.27c0,.64.52,1.16,1.16,1.16.64,0,1.16-.52,1.16-1.16v-4.27s4.27,0,4.27,0c.64,0,1.16-.52,1.16-1.16,0-.64-.52-1.16-1.16-1.16h-4.27Z"/>
      <path class="cls-3" d="M76.28,183.38v-4.27c0-.64-.52-1.16-1.16-1.16-.64,0-1.16.52-1.16,1.16v4.27h-4.27c-.64,0-1.16.52-1.16,1.16s.52,1.16,1.16,1.16h4.27v4.27c0,.64.52,1.16,1.16,1.16s1.16-.52,1.16-1.16v-4.27s4.27,0,4.27,0c.64,0,1.16-.52,1.16-1.16,0-.64-.52-1.16-1.16-1.16h-4.27Z"/>
      <path class="cls-3" d="M93.68,183.38v-4.27c0-.64-.52-1.16-1.16-1.16-.64,0-1.16.52-1.16,1.16v4.27h-4.27c-.64,0-1.16.52-1.16,1.16s.52,1.16,1.16,1.16h4.27v4.27c0,.64.52,1.16,1.16,1.16s1.16-.52,1.16-1.16v-4.27s4.27,0,4.27,0c.64,0,1.16-.52,1.16-1.16,0-.64-.52-1.16-1.16-1.16h-4.27Z"/>
      <path class="cls-3" d="M58.89,200.77v-4.27c0-.64-.52-1.16-1.16-1.16-.64,0-1.16.52-1.16,1.16v4.27h-4.27c-.64,0-1.16.52-1.16,1.16s.52,1.16,1.16,1.16h4.27v4.27c0,.64.52,1.16,1.16,1.16.64,0,1.16-.52,1.16-1.16v-4.27s4.27,0,4.27,0c.64,0,1.16-.52,1.16-1.16,0-.64-.52-1.16-1.16-1.16h-4.27Z"/>
      <path class="cls-3" d="M76.28,200.77v-4.27c0-.64-.52-1.16-1.16-1.16-.64,0-1.16.52-1.16,1.16v4.27h-4.27c-.64,0-1.16.52-1.16,1.16s.52,1.16,1.16,1.16h4.27v4.27c0,.64.52,1.16,1.16,1.16s1.16-.52,1.16-1.16v-4.27s4.27,0,4.27,0c.64,0,1.16-.52,1.16-1.16,0-.64-.52-1.16-1.16-1.16h-4.27Z"/>
      <path class="cls-3" d="M93.68,200.77v-4.27c0-.64-.52-1.16-1.16-1.16-.64,0-1.16.52-1.16,1.16v4.27h-4.27c-.64,0-1.16.52-1.16,1.16s.52,1.16,1.16,1.16h4.27v4.27c0,.64.52,1.16,1.16,1.16s1.16-.52,1.16-1.16v-4.27s4.27,0,4.27,0c.64,0,1.16-.52,1.16-1.16,0-.64-.52-1.16-1.16-1.16h-4.27Z"/>
      <path class="cls-3" d="M111.07,200.77v-4.27c0-.64-.52-1.16-1.16-1.16-.64,0-1.16.52-1.16,1.16v4.27h-4.27c-.64,0-1.16.52-1.16,1.16s.52,1.16,1.16,1.16h4.27v4.27c0,.64.52,1.16,1.16,1.16s1.16-.52,1.16-1.16v-4.27s4.27,0,4.27,0c.64,0,1.16-.52,1.16-1.16,0-.64-.52-1.16-1.16-1.16h-4.27Z"/>
      <path class="cls-14" d="M539.84,309.94h-4.27c-.64,0-1.16.52-1.16,1.16,0,.64.52,1.16,1.16,1.16h4.27v4.27c0,.64.52,1.16,1.16,1.16s1.16-.52,1.16-1.16v-4.27h4.27c.64,0,1.16-.52,1.16-1.16s-.52-1.16-1.16-1.16h-4.27s0-4.27,0-4.27c0-.64-.52-1.16-1.16-1.16-.64,0-1.16.52-1.16,1.16v4.27Z"/>
      <path class="cls-14" d="M539.84,292.55h-4.27c-.64,0-1.16.52-1.16,1.16,0,.64.52,1.16,1.16,1.16h4.27v4.27c0,.64.52,1.16,1.16,1.16s1.16-.52,1.16-1.16v-4.27h4.27c.64,0,1.16-.52,1.16-1.16,0-.64-.52-1.16-1.16-1.16h-4.27s0-4.27,0-4.27c0-.64-.52-1.16-1.16-1.16-.64,0-1.16.52-1.16,1.16v4.27Z"/>
      <path class="cls-14" d="M540.15,274.85h-4.27c-.64,0-1.16.52-1.16,1.16,0,.64.52,1.16,1.16,1.16h4.27v4.27c0,.64.52,1.16,1.16,1.16s1.16-.52,1.16-1.16v-4.27h4.27c.64,0,1.16-.52,1.16-1.16,0-.64-.52-1.16-1.16-1.16h-4.27s0-4.27,0-4.27c0-.64-.52-1.16-1.16-1.16-.64,0-1.16.52-1.16,1.16v4.27Z"/>
      <path class="cls-14" d="M540.15,257.46h-4.27c-.64,0-1.16.52-1.16,1.16,0,.64.52,1.16,1.16,1.16h4.27v4.27c0,.64.52,1.16,1.16,1.16s1.16-.52,1.16-1.16v-4.27h4.27c.64,0,1.16-.52,1.16-1.16,0-.64-.52-1.16-1.16-1.16h-4.27s0-4.27,0-4.27c0-.64-.52-1.16-1.16-1.16-.64,0-1.16.52-1.16,1.16v4.27Z"/>
      <path class="cls-14" d="M557.23,309.94h-4.27c-.64,0-1.16.52-1.16,1.16,0,.64.52,1.16,1.16,1.16h4.27v4.27c0,.64.52,1.16,1.16,1.16s1.16-.52,1.16-1.16v-4.27h4.27c.64,0,1.16-.52,1.16-1.16s-.52-1.16-1.16-1.16h-4.27s0-4.27,0-4.27c0-.64-.52-1.16-1.16-1.16-.64,0-1.16.52-1.16,1.16v4.27Z"/>
      <path class="cls-14" d="M557.23,292.55h-4.27c-.64,0-1.16.52-1.16,1.16,0,.64.52,1.16,1.16,1.16h4.27v4.27c0,.64.52,1.16,1.16,1.16s1.16-.52,1.16-1.16v-4.27h4.27c.64,0,1.16-.52,1.16-1.16,0-.64-.52-1.16-1.16-1.16h-4.27s0-4.27,0-4.27c0-.64-.52-1.16-1.16-1.16-.64,0-1.16.52-1.16,1.16v4.27Z"/>
      <path class="cls-14" d="M557.54,274.85h-4.27c-.64,0-1.16.52-1.16,1.16,0,.64.52,1.16,1.16,1.16h4.27v4.27c0,.64.52,1.16,1.16,1.16s1.16-.52,1.16-1.16v-4.27h4.27c.64,0,1.16-.52,1.16-1.16,0-.64-.52-1.16-1.16-1.16h-4.27s0-4.27,0-4.27c0-.64-.52-1.16-1.16-1.16-.64,0-1.16.52-1.16,1.16v4.27Z"/>
      <path class="cls-14" d="M557.54,257.46h-4.27c-.64,0-1.16.52-1.16,1.16,0,.64.52,1.16,1.16,1.16h4.27v4.27c0,.64.52,1.16,1.16,1.16s1.16-.52,1.16-1.16v-4.27h4.27c.64,0,1.16-.52,1.16-1.16s-.52-1.16-1.16-1.16h-4.27s0-4.27,0-4.27c0-.64-.52-1.16-1.16-1.16-.64,0-1.16.52-1.16,1.16v4.27Z"/>
      <path class="cls-14" d="M574.63,309.94h-4.27c-.64,0-1.16.52-1.16,1.16,0,.64.52,1.16,1.16,1.16h4.27v4.27c0,.64.52,1.16,1.16,1.16s1.16-.52,1.16-1.16v-4.27h4.27c.64,0,1.16-.52,1.16-1.16s-.52-1.16-1.16-1.16h-4.27s0-4.27,0-4.27c0-.64-.52-1.16-1.16-1.16-.64,0-1.16.52-1.16,1.16v4.27Z"/>
      <path class="cls-14" d="M574.93,292.24h-4.27c-.64,0-1.16.52-1.16,1.16,0,.64.52,1.16,1.16,1.16h4.27v4.27c0,.64.52,1.16,1.16,1.16s1.16-.52,1.16-1.16v-4.27h4.27c.64,0,1.16-.52,1.16-1.16,0-.64-.52-1.16-1.16-1.16h-4.27s0-4.27,0-4.27c0-.64-.52-1.16-1.16-1.16-.64,0-1.16.52-1.16,1.16v4.27Z"/>
      <path class="cls-14" d="M574.93,274.85h-4.27c-.64,0-1.16.52-1.16,1.16,0,.64.52,1.16,1.16,1.16h4.27v4.27c0,.64.52,1.16,1.16,1.16s1.16-.52,1.16-1.16v-4.27h4.27c.64,0,1.16-.52,1.16-1.16,0-.64-.52-1.16-1.16-1.16h-4.27s0-4.27,0-4.27c0-.64-.52-1.16-1.16-1.16-.64,0-1.16.52-1.16,1.16v4.27Z"/>
      <path class="cls-14" d="M574.93,257.46h-4.27c-.64,0-1.16.52-1.16,1.16,0,.64.52,1.16,1.16,1.16h4.27v4.27c0,.64.52,1.16,1.16,1.16s1.16-.52,1.16-1.16v-4.27h4.27c.64,0,1.16-.52,1.16-1.16s-.52-1.16-1.16-1.16h-4.27s0-4.27,0-4.27c0-.64-.52-1.16-1.16-1.16-.64,0-1.16.52-1.16,1.16v4.27Z"/>
      <path class="cls-14" d="M578.13,501.67l5.03-5.03c.76-.76.76-1.99,0-2.74-.76-.76-1.99-.76-2.74,0l-5.03,5.03-5.03-5.03c-.76-.76-1.99-.76-2.74,0-.76.76-.76,1.99,0,2.74l5.03,5.03-5.03,5.03c-.76.76-.76,1.99,0,2.74s1.99.76,2.74,0l5.03-5.03,5.03,5.03c.76.76,1.99.76,2.74,0,.76-.76.76-1.99,0-2.74l-5.03-5.03Z"/>
      <path class="cls-14" d="M267.3,137.5l5.03-5.03c.76-.76.76-1.99,0-2.74-.76-.76-1.99-.76-2.74,0l-5.03,5.03-5.03-5.03c-.76-.76-1.99-.76-2.74,0-.76.76-.76,1.99,0,2.74l5.03,5.03-5.03,5.03c-.76.76-.76,1.99,0,2.74s1.99.76,2.74,0l5.03-5.03,5.03,5.03c.76.76,1.99.76,2.74,0,.76-.76.76-1.99,0-2.74l-5.03-5.03Z"/>
      <path class="cls-14" d="M92.97,491.73l5.03-5.03c.76-.76.76-1.99,0-2.74s-1.99-.76-2.74,0l-5.03,5.03-5.03-5.03c-.76-.76-1.99-.76-2.74,0-.76.76-.76,1.99,0,2.74l5.03,5.03-5.03,5.03c-.76.76-.76,1.99,0,2.74.76.76,1.99.76,2.74,0l5.03-5.03,5.03,5.03c.76.76,1.99.76,2.74,0,.76-.76.76-1.99,0-2.74l-5.03-5.03Z"/>
      <path class="cls-14" d="M437.75,150.79c-5.48,0-9.94-4.46-9.94-9.94s4.46-9.94,9.94-9.94,9.94,4.46,9.94,9.94-4.46,9.94-9.94,9.94ZM437.75,135.29c-3.07,0-5.56,2.49-5.56,5.56s2.5,5.56,5.56,5.56,5.56-2.49,5.56-5.56-2.49-5.56-5.56-5.56Z"/>
      <path class="cls-14" d="M35.15,282.42c-5.48,0-9.94-4.46-9.94-9.94s4.46-9.94,9.94-9.94,9.94,4.46,9.94,9.94-4.46,9.94-9.94,9.94ZM35.15,266.91c-3.07,0-5.56,2.49-5.56,5.56s2.49,5.56,5.56,5.56,5.57-2.49,5.57-5.56-2.5-5.56-5.57-5.56Z"/>
      <path class="cls-14" d="M217.96,514.01c-5.48,0-9.94-4.46-9.94-9.94s4.46-9.94,9.94-9.94,9.94,4.46,9.94,9.94-4.46,9.94-9.94,9.94ZM217.96,498.51c-3.07,0-5.56,2.49-5.56,5.56s2.49,5.56,5.56,5.56,5.56-2.49,5.56-5.56-2.49-5.56-5.56-5.56Z"/>
      <path class="cls-17" d="M475.44,75.91c-.03.15.1.1.16.12,1.65.48,3.31.95,4.97,1.43,2.12.61,4.25,1.21,6.37,1.81.16.04.21.1.21.27,0,2.22.03,4.45-.02,6.67-.05,2.02-.47,3.99-1.18,5.88-.8,2.13-1.92,4.06-3.4,5.79-1.94,2.27-4.28,4-7.02,5.2-.12.05-.12.05-.18.15h-.21c0-1.17,0-2.34,0-3.51.06-.02.12-.04.17-.07,1.35-.73,2.6-1.61,3.71-2.68,1.7-1.64,2.99-3.56,3.84-5.77.68-1.75,1.07-3.57,1.09-5.45.01-1.25,0-2.49.01-3.74,0-.22-.08-.3-.28-.36-1.86-.52-3.72-1.06-5.58-1.59-.96-.27-1.93-.54-2.9-.81-.02-.02-.04-.03-.06-.04,0-1.1,0-2.21,0-3.31h.32Z"/>
      <path class="cls-9" d="M475.11,99.73c0,1.17,0,2.34,0,3.51h-.21c.06-.13-.07-.11-.11-.13-1.23-.54-2.4-1.19-3.5-1.97-1.64-1.15-3.07-2.54-4.28-4.14-1.36-1.79-2.37-3.77-3.04-5.92-.38-1.23-.63-2.49-.77-3.78-.17-1.65-.08-3.31-.1-4.96-.01-.93,0-1.87,0-2.8,0-.17.05-.24.22-.28,3.76-1.06,7.51-2.14,11.27-3.21.09-.03.25.03.27-.15h.27c0,1.1,0,2.21,0,3.31-.07.03-.15.06-.22.08-2.77.79-5.55,1.59-8.32,2.37-.19.05-.28.13-.27.34.02.51,0,1.01,0,1.52,0,1.48-.04,2.97.21,4.44.35,2.04,1.04,3.95,2.1,5.72,1.06,1.76,2.41,3.25,4.04,4.49.77.59,1.58,1.12,2.46,1.53h0Z"/>
      <path class="cls-13" d="M475.18,79.26c.97.27,1.93.54,2.9.81,1.86.53,3.72,1.07,5.58,1.59.2.06.28.14.28.36-.01,1.25,0,2.49-.01,3.74-.02,1.88-.41,3.7-1.09,5.45-.86,2.21-2.14,4.13-3.84,5.77-1.11,1.07-2.36,1.95-3.71,2.68-.05.03-.11.05-.17.07h0c0-6.74,0-13.46,0-20.19,0-.1-.02-.2.06-.28Z"/>
      <path class="cls-15" d="M475.18,79.26c-.08.08-.06.18-.06.28,0,6.72,0,13.45,0,20.17-.88-.42-1.69-.95-2.46-1.53-1.63-1.24-2.98-2.74-4.04-4.49-1.07-1.77-1.76-3.68-2.1-5.72-.25-1.47-.2-2.96-.21-4.44,0-.51.01-1.01,0-1.52,0-.21.07-.28.27-.34,2.78-.78,5.55-1.58,8.32-2.37.08-.02.15-.05.22-.08.02.01.04.03.06.04Z"/>
      <path class="cls-17" d="M134.43,75.8c-.03.15.1.1.16.12,1.65.48,3.31.95,4.97,1.43,2.12.61,4.25,1.21,6.37,1.81.16.04.21.1.21.27,0,2.22.03,4.45-.02,6.67-.05,2.02-.47,3.99-1.18,5.88-.8,2.13-1.92,4.06-3.4,5.79-1.94,2.27-4.28,4-7.02,5.2-.12.05-.12.05-.18.15h-.21c0-1.17,0-2.34,0-3.51.06-.02.12-.04.17-.07,1.35-.73,2.6-1.61,3.71-2.68,1.7-1.64,2.99-3.56,3.84-5.77.68-1.75,1.07-3.57,1.09-5.45.01-1.25,0-2.49.01-3.74,0-.22-.08-.3-.28-.36-1.86-.52-3.72-1.06-5.58-1.59-.96-.27-1.93-.54-2.9-.81-.02-.02-.04-.03-.06-.04,0-1.1,0-2.21,0-3.31h.32Z"/>
      <path class="cls-9" d="M134.11,99.62c0,1.17,0,2.34,0,3.51h-.21c.06-.13-.07-.11-.11-.13-1.23-.54-2.4-1.19-3.5-1.97-1.64-1.15-3.07-2.54-4.28-4.14-1.36-1.79-2.37-3.77-3.04-5.92-.38-1.23-.63-2.49-.77-3.78-.17-1.65-.08-3.31-.1-4.96-.01-.93,0-1.87,0-2.8,0-.17.05-.24.22-.28,3.76-1.06,7.51-2.14,11.27-3.21.09-.03.25.03.27-.15h.27c0,1.1,0,2.21,0,3.31-.07.03-.15.06-.22.08-2.77.79-5.55,1.59-8.32,2.37-.19.05-.28.13-.27.34.02.51,0,1.01,0,1.52,0,1.48-.04,2.97.21,4.44.35,2.04,1.04,3.95,2.1,5.72,1.06,1.76,2.41,3.25,4.04,4.49.77.59,1.58,1.12,2.46,1.53h0Z"/>
      <path class="cls-13" d="M134.17,79.15c.97.27,1.93.54,2.9.81,1.86.53,3.72,1.07,5.58,1.59.2.06.28.14.28.36-.01,1.25,0,2.49-.01,3.74-.02,1.88-.41,3.7-1.09,5.45-.86,2.21-2.14,4.13-3.84,5.77-1.11,1.07-2.36,1.95-3.71,2.68-.05.03-.11.05-.17.07h0c0-6.74,0-13.46,0-20.19,0-.1-.02-.2.06-.28Z"/>
      <path class="cls-15" d="M134.17,79.15c-.08.08-.06.18-.06.28,0,6.72,0,13.45,0,20.17-.88-.42-1.69-.95-2.46-1.53-1.63-1.24-2.98-2.74-4.04-4.49-1.07-1.77-1.76-3.68-2.1-5.72-.25-1.47-.2-2.96-.21-4.44,0-.51.01-1.01,0-1.52,0-.21.07-.28.27-.34,2.78-.78,5.55-1.58,8.32-2.37.08-.02.15-.05.22-.08.02.01.04.03.06.04Z"/>
    </g>
  </g>
</svg>